<svg version="1.2" xmlns="http://www.w3.org/2000/svg" viewBox="0 0 3710 3710" width="3710" height="3710">
	<title>portfolio</title>
	<defs>
		<linearGradient id="g1" x1="3598.7" y1="3424.3" x2="3504" y2="3424.3" gradientUnits="userSpaceOnUse">
			<stop offset="0" stop-color="#febbba"/>
			<stop offset="1" stop-color="#ff928e"/>
		</linearGradient>
		<linearGradient id="g2" x1="3090" y1="3439" x2="3013.5" y2="3439" gradientUnits="userSpaceOnUse">
			<stop offset="0" stop-color="#febbba"/>
			<stop offset="1" stop-color="#ff928e"/>
		</linearGradient>
		<linearGradient id="g3" x1="2887.6" y1="2288.3" x2="3211.2" y2="2706.7" gradientUnits="userSpaceOnUse">
			<stop offset="0" stop-color="#cb236d"/>
			<stop offset="1" stop-color="#4c246d"/>
		</linearGradient>
		<linearGradient id="g4" x1="3014.5" y1="1476.6" x2="3002.7" y2="1256.9" gradientUnits="userSpaceOnUse">
			<stop offset="0" stop-color="#febbba"/>
			<stop offset="1" stop-color="#ff928e"/>
		</linearGradient>
		<linearGradient id="g5" x1="2755.6" y1="1219.2" x2="2968" y2="1421.3" gradientUnits="userSpaceOnUse">
			<stop offset="0" stop-color="#febbba"/>
			<stop offset="1" stop-color="#ff928e"/>
		</linearGradient>
		<linearGradient id="g6" x1="2878.5" y1="1131.8" x2="3053.1" y2="1297.9" gradientUnits="userSpaceOnUse">
			<stop offset="0" stop-color="#febbba"/>
			<stop offset="1" stop-color="#ff928e"/>
		</linearGradient>
		<linearGradient id="g7" x1="3689.4" y1="1837.3" x2="3542.4" y2="2901.4" gradientUnits="userSpaceOnUse">
			<stop offset="0" stop-color="#dae3fe"/>
			<stop offset="1" stop-color="#e9effd"/>
		</linearGradient>
		<linearGradient id="g8" x1="3344.8" y1="1961.1" x2="3861.6" y2="1138.6" gradientUnits="userSpaceOnUse">
			<stop offset="0" stop-color="#febbba"/>
			<stop offset="1" stop-color="#ff928e"/>
		</linearGradient>
	</defs>
	<style>
		.s0 { opacity: .2;fill: #00e190 } 
		.s1 { opacity: .5;fill: #00e190 } 
		.s2 { opacity: .5;fill: #ffffff } 
		.s3 { opacity: .6;fill: #00e190 } 
		.s4 { fill: #263b5e } 
		.s5 { fill: #00e190 } 
		.s6 { opacity: .6;fill: #ffffff } 
		.s7 { fill: #ffffff } 
		.s8 { fill: #0d1d38 } 
		.s9 { fill: #91b3fa } 
		.s10 { fill: url(#g1) } 
		.s11 { fill: url(#g2) } 
		.s12 { fill: url(#g3) } 
		.s13 { fill: url(#g4) } 
		.s14 { fill: url(#g5) } 
		.s15 { fill: url(#g6) } 
		.s16 { fill: #bdd0fb } 
		.s17 { fill: url(#g7) } 
		.s18 { fill: url(#g8) } 
	</style>
	<g id="Illustration">
		<g id="&lt;Group&gt;">
			<path id="&lt;Path&gt;" class="s0" d="m3223.8 3111.7c-73.7 77.6-143.4 127.6-198.5 167.1-647.4 464.5-1413.4 329.1-1576.2 296.1-240.4-48.9-705.1-143.3-1041.1-538.4-508.3-597.8-429.2-1539.6-34.9-2161.2 72.1-113.8 453.1-744.9 1227.4-846.1 468.6-61.3 1014.8 62.3 1410.3 393.7 830.3 695.6 771.2 2101 213 2688.8z"/>
			<g id="&lt;Group&gt;">
				<path id="&lt;Path&gt;" class="s1" d="m40.3 1073.3c-5.7-11.1 8.9-23 21.1-17.2 123.4 58.1 432 247.2 477.7 698.9 57.4 566.8 238.7 734.2 433.1 815.7 0 0-240-1.8-431.9-169.7-471.4-412.2-399.5-1130.6-500-1327.7z"/>
				<path id="&lt;Path&gt;" class="s2" d="m162.5 1220.7c1.9-0.8 4.2-0.3 5.1 1.4 30.9 56.6 59.3 114.4 85.8 173 26.2 58.7 50.3 118.3 72.2 178.6q8.1 22.6 15.9 45.4c5.1 15.2 10.1 30.4 14.9 45.7q14.4 45.9 27 92.4c17 61.8 30.9 124.5 44.4 186.9 13.3 62.5 26.2 124.8 46.2 184.6 10 29.9 21.9 59.1 36.3 87.1 14.4 27.9 31.3 54.7 50.5 80.2 39.1 50.4 85.7 96.9 139.3 135.7 26.6 19.6 55.1 37.3 85 53.1 7.3 4 15.1 7.6 22.6 11.5 7.8 3.6 15.4 7.3 23.3 10.7 15.6 7.1 31.6 13.5 47.7 19.8 6.8 2.7 9.6 9.8 6.3 16-3.3 6.4-11.8 9.6-18.9 7-67.2-24-130.7-56.4-186.7-96.7-27.9-20.2-54-42.3-78.1-65.9-12-11.9-23.7-23.9-34.8-36.4-11.3-12.4-21.8-25.4-32-38.6-40.8-52.9-69.5-112.9-89.4-174.5-20-61.8-32.5-124.9-45.3-187.5-12.4-62.7-25-125.1-40.7-186.8-15.4-61.7-33.8-122.7-53.6-183.3-20-60.5-42.2-120.4-66.5-179.5-24-59.3-50.5-117.6-78.4-175.4-0.8-1.6 0.1-3.6 1.9-4.5z"/>
			</g>
			<g id="&lt;Group&gt;">
				<g id="&lt;Group&gt;">
					<path id="&lt;Path&gt;" class="s3" d="m603.4 2014.8c-9.3 16.5-32.4 18.1-44.1 3.2-64.6-82.1-226.3-330.9-146.8-682.8 67-297.2 75.2-464.7 73.6-541.1-0.4-16.1 20.1-23.3 29.9-10.5 108.7 141 425.3 633.8 87.4 1231.2z"/>
					<path id="&lt;Path&gt;" class="s2" d="m578.1 2010.7q-0.6 0.3-1.3 0.4c-4 1-8-1.5-8.9-5.5-1-4.5-102.8-456-28.2-873.4 0.8-4.1 4.6-6.7 8.6-6 4 0.7 6.7 4.5 6 8.6-74.1 414.4 27 863 28 867.5 0.8 3.5-1 7-4.2 8.4z"/>
				</g>
			</g>
			<g id="&lt;Group&gt;">
				<g id="&lt;Group&gt;">
					<path id="&lt;Path&gt;" class="s3" d="m2723.7 3208.3h-2019.9v-2889.2c0-101.6 77.2-183 170.3-179.5l1907.5 28.4c97.3 1.4 174.7 89.4 172.1 195.6l-66.6 2671.1c-2.4 96.6-74.9 173.6-163.4 173.6z"/>
					<path id="&lt;Path&gt;" class="s4" d="m2687.7 2770h-1952.5v-2403.7c0-84.5 74.6-152.2 164.6-149.3l1844 23.6c94 1.2 168.8 74.4 166.3 162.7l-64.4 2222.3c-2.3 80.4-72.3 144.4-158 144.4z"/>
					<path id="&lt;Path&gt;" class="s5" d="m735.6 307.7c-0.9-50.3 54.5-116 101.4-115.5l1967.2 24.7c66.7 0 109.5 58.2 112.4 101.7v104.7l-2178.7-17z"/>
					<path id="&lt;Path&gt;" class="s6" d="m872.8 295.7c0 16.8-13.6 30.4-30.4 30.4-16.8 0-30.4-13.6-30.4-30.4 0-16.8 13.6-30.5 30.4-30.5 16.8 0 30.4 13.7 30.4 30.5z"/>
					<path id="&lt;Path&gt;" class="s6" d="m994.6 299.2c0 16.8-13.7 30.4-30.5 30.4-16.8 0-30.4-13.6-30.4-30.4 0-16.8 13.6-30.4 30.4-30.4 16.8 0 30.5 13.6 30.5 30.4z"/>
					<path id="&lt;Path&gt;" class="s6" d="m1111.4 299.2c0 16.8-13.7 30.4-30.5 30.4-16.8 0-30.4-13.6-30.4-30.4 0-16.8 13.6-30.4 30.4-30.4 16.8 0 30.5 13.6 30.5 30.4z"/>
				</g>
				<g id="&lt;Group&gt;">
					<g id="&lt;Group&gt;">
						<path id="&lt;Path&gt;" class="s5" d="m1640.2 1017.1h-774.2c-5.5 0-10-4.5-10-10v-479.8c0-5.6 4.5-10 10-10h774.2c5.5 0 9.9 4.4 9.9 10v479.8c0 5.5-4.4 10-9.9 10z"/>
						<path id="&lt;Compound Path&gt;" fill-rule="evenodd" class="s7" d="m1589.6 996.7h-673.1c-19.7 0-35.8-16.1-35.8-35.9v-386.4c0-19.8 16.1-35.8 35.8-35.8h673.1c19.8 0 35.9 16 35.9 35.8v386.4c0 19.8-16.1 35.9-35.9 35.9zm-673.1-453.7c-17.3 0-31.4 14.1-31.4 31.4v386.4c0 17.4 14.1 31.5 31.4 31.5h673.1c17.3 0 31.4-14.1 31.4-31.5v-386.4c0-17.3-14.1-31.4-31.4-31.4z"/>
						<path id="&lt;Path&gt;" class="s7" d="m978.2 914.9l83-119.4c5.6-8 16.9-9.2 24.1-2.6l30.9 28.3c8 7.3 20.9 4.7 25.4-5.2l76.3-167.2c5.4-11.8 21.9-12.7 28.5-1.5l158 268.7c6.3 10.7-1.4 24.2-13.8 24.2h-399.2c-13 0-20.6-14.6-13.2-25.3z"/>
						<path id="&lt;Path&gt;" class="s7" d="m1442.5 639.2c0 31.7-25.7 57.4-57.4 57.4-31.7 0-57.3-25.7-57.3-57.4 0-31.7 25.6-57.4 57.3-57.4 31.7 0 57.4 25.7 57.4 57.4z"/>
					</g>
					<g id="&lt;Group&gt;">
						<path id="&lt;Path&gt;" class="s5" d="m1638 1605.3h-769.8c-6.8 0-12.2-5.5-12.2-12.2v-475.5c0-6.7 5.4-12.1 12.2-12.1h769.8c6.7 0 12.1 5.4 12.1 12.1v475.5c0 6.7-5.4 12.2-12.1 12.2z"/>
						<path id="&lt;Path&gt;" class="s7" d="m997.4 1502.9l83-119.4c5.5-8 16.9-9.3 24-2.7l30.9 28.3c8 7.4 20.9 4.8 25.5-5.2l76.3-167.2c5.4-11.8 21.8-12.6 28.4-1.4l158 268.6c6.3 10.7-1.4 24.2-13.8 24.2h-399.2c-12.9 0-20.5-14.6-13.1-25.2z"/>
						<path id="&lt;Path&gt;" class="s7" d="m1461.7 1227.2c0 31.6-25.7 57.3-57.4 57.3-31.7 0-57.4-25.7-57.4-57.3 0-31.7 25.7-57.4 57.4-57.4 31.7 0 57.4 25.7 57.4 57.4z"/>
						<path id="&lt;Compound Path&gt;" fill-rule="evenodd" class="s7" d="m1589 1588.7h-673c-19.8 0-35.9-16.1-35.9-35.9v-386.4c0-19.7 16.1-35.8 35.9-35.8h673c19.8 0 35.9 16.1 35.9 35.8v386.4c0 19.8-16.1 35.9-35.9 35.9zm-673-453.7c-17.4 0-31.5 14.1-31.5 31.4v386.4c0 17.4 14.1 31.5 31.5 31.5h673c17.4 0 31.5-14.1 31.5-31.5v-386.4c0-17.3-14.1-31.4-31.5-31.4z"/>
					</g>
					<g id="&lt;Group&gt;">
						<path id="&lt;Path&gt;" class="s5" d="m2767.6 1105.6h-914.8c-5.5 0-10-4.5-10-10v-568.3c0-5.6 4.5-10 10-10h914.8c5.6 0 10 4.4 10 10v568.3c0 5.5-4.4 10-10 10z"/>
						<path id="&lt;Compound Path&gt;" fill-rule="evenodd" class="s7" d="m2712.3 1081.3h-804.2c-19.8 0-35.9-16.1-35.9-35.9v-466.8c0-19.8 16.1-35.9 35.9-35.9h804.2c19.8 0 35.9 16.1 35.9 35.9v466.8c0 19.8-16.1 35.9-35.9 35.9zm-804.2-534.2c-17.3 0-31.4 14.2-31.4 31.5v466.8c0 17.3 14.1 31.4 31.4 31.4h804.2c17.4 0 31.5-14.1 31.5-31.4v-466.8c0-17.3-14.1-31.5-31.5-31.5z"/>
						<g id="&lt;Group&gt;" style="opacity: .9">
							<path id="&lt;Compound Path&gt;" fill-rule="evenodd" class="s7" d="m2304.4 975.1c-91.6 0-166-74.5-166-166 0-91.5 74.4-166 166-166 91.5 0 166 74.5 166 166 0 91.5-74.5 166-166 166zm0-304.2c-76.2 0-138.2 62-138.2 138.2 0 76.2 62 138.2 138.2 138.2 76.2 0 138.2-62 138.2-138.2 0-76.2-62-138.2-138.2-138.2z"/>
							<path id="&lt;Path&gt;" class="s7" d="m2252.4 873v-119.3c0-12.8 13.9-20.7 24.8-14.1l100.6 59.6c10.7 6.4 10.7 21.9 0 28.3l-100.6 59.7c-10.9 6.5-24.8-1.4-24.8-14.2z"/>
						</g>
					</g>
					<g id="&lt;Group&gt;">
						<path id="&lt;Path&gt;" class="s5" d="m2761.8 1793.6h-914.9c-5.5 0-9.9-4.4-9.9-9.9v-568.4c0-5.5 4.4-10 9.9-10h914.9c5.5 0 10 4.5 10 10v568.4c0 5.5-4.5 9.9-10 9.9z"/>
						<path id="&lt;Compound Path&gt;" fill-rule="evenodd" class="s7" d="m2706.5 1769.3h-804.2c-19.8 0-35.9-16.1-35.9-35.9v-466.8c0-19.8 16.1-35.8 35.9-35.8h804.2c19.8 0 35.9 16 35.9 35.8v466.8c0 19.8-16.1 35.9-35.9 35.9zm-804.2-534.1c-17.4 0-31.5 14.1-31.5 31.4v466.8c0 17.3 14.1 31.5 31.5 31.5h804.2c17.3 0 31.4-14.2 31.4-31.5v-466.8c0-17.3-14.1-31.4-31.4-31.4z"/>
						<g id="&lt;Group&gt;" style="opacity: .9">
							<path id="&lt;Compound Path&gt;" fill-rule="evenodd" class="s7" d="m2298.5 1663.2c-91.5 0-166-74.5-166-166.1 0-91.5 74.5-166 166-166 91.6 0 166 74.5 166 166 0 91.6-74.4 166.1-166 166.1zm0-304.2c-76.1 0-138.1 62-138.1 138.1 0 76.2 62 138.2 138.1 138.2 76.2 0 138.2-62 138.2-138.2 0-76.1-62-138.1-138.2-138.1z"/>
							<path id="&lt;Path&gt;" class="s7" d="m2246.5 1561.1v-119.4c0-12.7 13.9-20.6 24.9-14.1l100.5 59.7c10.8 6.3 10.8 21.9 0 28.3l-100.5 59.6c-11 6.5-24.9-1.4-24.9-14.1z"/>
						</g>
					</g>
				</g>
			</g>
			<g id="&lt;Group&gt;">
				<path id="&lt;Path&gt;" class="s8" d="m2880.1 2602c44.2 349 5 720.8-25.8 928.6-14.1 94.9-96.2 165-192.6 164.4l-1970.5-11.6c-144.2-0.9-261.9-115.1-266.5-258.5l-26.5-822.9z"/>
				<path id="&lt;Compound Path&gt;" class="s7" d="m2591.9 3644.4q0 0 0 0h-14.4c-1.3 0-2.4-1.1-2.4-2.4 0-1.4 1.1-2.4 2.4-2.4q0 0 0 0l14.4 0.1c1.3 0 2.4 1 2.4 2.4 0 1.3-1.1 2.3-2.4 2.3zm33.4-0.2c-1.2 0-2.3-1-2.3-2.2-0.1-1.3 0.9-2.5 2.2-2.6 4.7-0.3 9.4-0.7 14.1-1.4 1.3-0.2 2.5 0.7 2.7 2.1 0.2 1.3-0.7 2.5-2.1 2.7-4.7 0.6-9.6 1.1-14.4 1.4q-0.1 0-0.2 0zm-81.3 0q0 0 0 0l-14.3-0.1c-1.4 0-2.4-1.1-2.4-2.4 0-1.3 1.1-2.4 2.4-2.4q0 0 0 0l14.3 0.1c1.4 0 2.4 1.1 2.4 2.4 0 1.3-1.1 2.4-2.4 2.4zm-47.8-0.3q0 0 0 0l-14.4-0.1c-1.3 0-2.4-1.1-2.4-2.4 0-1.3 1.1-2.4 2.4-2.4q0 0 0 0l14.4 0.1c1.3 0 2.4 1.1 2.4 2.4 0 1.3-1.1 2.4-2.4 2.4zm-47.9-0.3q0 0 0 0l-14.3-0.1c-1.4 0-2.4-1.1-2.4-2.4 0-1.3 1.3-2.3 2.4-2.4l14.4 0.1c1.3 0 2.3 1.1 2.3 2.4 0 1.3-1 2.4-2.4 2.4zm-47.8-0.3q0 0 0 0l-14.4-0.1c-1.3 0-2.4-1.1-2.3-2.4 0-1.3 1-2.4 2.3-2.4q0.1 0 0.1 0l14.3 0.1c1.3 0 2.4 1.1 2.4 2.4 0 1.4-1.1 2.4-2.4 2.4zm-47.8-0.3q-0.1 0-0.1 0l-14.3-0.1c-1.3 0-2.4-1-2.4-2.4 0-1.3 1.3-2.4 2.4-2.3h14.4c1.3 0.1 2.4 1.1 2.3 2.5 0 1.3-1 2.3-2.3 2.3zm-47.9-0.3q0 0 0 0h-14.4c-1.3 0-2.3-1.1-2.3-2.4 0-1.4 1-2.4 2.4-2.4q0 0 0 0l14.3 0.1c1.3 0 2.4 1 2.4 2.4 0 1.3-1.1 2.3-2.4 2.3zm-47.8-0.2q0 0 0 0l-14.4-0.1c-1.3 0-2.4-1.1-2.4-2.4 0-1.3 1.1-2.4 2.4-2.4q0 0 0 0l14.4 0.1c1.3 0 2.4 1.1 2.4 2.4 0 1.3-1.1 2.4-2.4 2.4zm-47.9-0.3q0 0 0 0l-14.3-0.1c-1.4 0-2.4-1.1-2.4-2.4 0-1.3 1.1-2.4 2.4-2.4q0 0 0 0l14.3 0.1c1.4 0 2.4 1.1 2.4 2.4 0 1.3-1.1 2.4-2.4 2.4zm-47.8-0.3q0 0 0 0l-14.4-0.1c-1.3 0-2.4-1.1-2.4-2.4 0-1.3 1.1-2.4 2.4-2.4q0 0 0 0l14.4 0.1c1.3 0 2.4 1.1 2.4 2.4 0 1.3-1.1 2.4-2.4 2.4zm-47.9-0.3q0 0 0 0l-14.3-0.1c-1.3 0-2.4-1-2.4-2.4 0-1.3 1.1-2.3 2.4-2.3q0 0 0 0h14.4c1.3 0 2.3 1.1 2.3 2.4 0 1.4-1 2.4-2.4 2.4zm-47.8-0.3q0 0 0 0h-14.4c-1.3-0.1-2.4-1.1-2.3-2.5 0-1.3 1-2.3 2.3-2.3q0.1 0 0.1 0l14.3 0.1c1.3 0 2.4 1 2.4 2.4 0 1.3-1.1 2.3-2.4 2.3zm-47.8-0.2q0 0-0.1 0l-14.3-0.1c-1.3 0-2.4-1.1-2.4-2.4 0-1.3 1.1-2.4 2.4-2.4q0 0 0 0l14.4 0.1c1.3 0 2.4 1.1 2.4 2.4-0.1 1.3-1.1 2.4-2.4 2.4zm-47.9-0.3q0 0 0 0l-14.4-0.1c-1.3 0-2.3-1.1-2.3-2.4 0-1.3 1-2.4 2.4-2.4q0 0 0 0l14.3 0.1c1.4 0 2.4 1.1 2.4 2.4 0 1.3-1.1 2.4-2.4 2.4zm-47.8-0.3q0 0 0 0l-14.4-0.1c-1.3 0-2.4-1.1-2.4-2.4 0-1.3 1.1-2.4 2.4-2.4q0 0 0 0l14.4 0.1c1.3 0 2.4 1.1 2.4 2.4 0 1.3-1.1 2.4-2.4 2.4zm-47.9-0.3q0 0 0 0l-14.3-0.1c-1.4 0-2.4-1.1-2.4-2.4 0-1.3 1.2-2.2 2.4-2.4l14.3 0.1c1.4 0 2.4 1.1 2.4 2.4 0 1.4-1.1 2.4-2.4 2.4zm-47.8-0.3q0 0 0 0l-14.4-0.1c-1.3 0-2.4-1-2.4-2.4 0-1.3 1.1-2.3 2.4-2.3q0 0 0 0h14.4c1.3 0.1 2.4 1.1 2.4 2.5 0 1.3-1.1 2.3-2.4 2.3zm-47.9-0.3q0 0 0 0h-14.3c-1.3 0-2.4-1.1-2.4-2.4 0-1.4 1.2-2.4 2.4-2.4l14.4 0.1c1.3 0 2.3 1 2.3 2.4 0 1.3-1 2.3-2.4 2.3zm-47.8-0.2q0 0 0 0l-14.4-0.1c-1.3 0-2.3-1.1-2.3-2.4 0-1.3 1-2.4 2.4-2.4q0 0 0 0l14.3 0.1c1.3 0 2.4 1.1 2.4 2.4 0 1.3-1.1 2.4-2.4 2.4zm-47.8-0.3q0 0-0.1 0l-14.3-0.1c-1.3 0-2.4-1.1-2.4-2.4 0-1.3 1.2-2.4 2.4-2.4l14.4 0.1c1.3 0 2.4 1.1 2.4 2.4-0.1 1.3-1.1 2.4-2.4 2.4zm-47.9-0.3q0 0 0 0l-14.3-0.1c-1.4 0-2.4-1.1-2.4-2.4 0-1.3 1.1-2.4 2.4-2.4q0 0 0 0l14.3 0.1c1.4 0 2.4 1.1 2.4 2.4 0 1.3-1.1 2.4-2.4 2.4zm-47.8-0.3q0 0 0 0l-14.4-0.1c-1.3 0-2.4-1.1-2.4-2.4 0-1.3 1.1-2.3 2.4-2.3q0 0 0 0h14.4c1.3 0 2.4 1.1 2.4 2.4 0 1.4-1.1 2.4-2.4 2.4zm-47.9-0.3q0 0 0 0h-14.3c-1.4-0.1-2.4-1.1-2.4-2.5 0-1.3 1.1-2.3 2.4-2.3q0 0 0 0l14.3 0.1c1.4 0 2.4 1 2.4 2.4 0 1.3-1.1 2.3-2.4 2.3zm-47.8-0.2q0 0 0 0l-14.4-0.1c-1.3 0-2.4-1.1-2.4-2.4 0.1-1.4 1.1-2.4 2.4-2.4q0 0 0.1 0l14.3 0.1c1.3 0 2.4 1.1 2.4 2.4 0 1.3-1.1 2.4-2.4 2.4zm-47.9-0.3q0 0 0 0l-14.3-0.1c-1.3 0-2.4-1.1-2.4-2.4 0-1.3 1.1-2.4 2.4-2.4q0 0 0 0l14.4 0.1c1.3 0 2.3 1.1 2.3 2.4 0 1.3-1 2.4-2.4 2.4zm-47.8-0.3q0 0 0 0l-14.4-0.1c-1.3 0-2.3-1.1-2.3-2.4 0-1.3 1-2.4 2.4-2.4q0 0 0 0l14.3 0.1c1.3 0 2.4 1.1 2.4 2.4 0 1.3-1.1 2.4-2.4 2.4zm-47.8-0.3q0 0 0 0l-14.4-0.1c-1.3 0-2.4-1.1-2.4-2.4 0-1.3 1.1-2.4 2.4-2.4q0 0 0 0l14.4 0.1c1.3 0 2.4 1.1 2.4 2.4 0 1.3-1.1 2.4-2.4 2.4zm-47.9-0.3q0 0 0 0l-14.3-0.1c-1.4 0-2.4-1-2.4-2.4 0-1.3 1.1-2.3 2.4-2.3q0 0 0 0h14.3c1.4 0.1 2.4 1.1 2.4 2.4 0 1.4-1.1 2.4-2.4 2.4zm-47.8-0.3q0 0 0 0h-14.4c-1.3 0-2.4-1.1-2.4-2.4 0-1.4 1.1-2.4 2.4-2.4q0 0 0 0l14.4 0.1c1.3 0 2.4 1 2.4 2.4 0 1.3-1.1 2.3-2.4 2.3zm-47.9-0.2q0 0 0 0l-14.3-0.1c-1.4 0-2.4-1.1-2.4-2.4 0-1.3 1.2-2.3 2.4-2.4l14.4 0.1c1.3 0 2.3 1.1 2.3 2.4 0 1.3-1 2.4-2.4 2.4zm-47.8-0.3q0 0 0 0l-14.4-0.1c-1.3 0-2.4-1.1-2.4-2.4 0.1-1.3 1.1-2.4 2.4-2.4q0 0 0.1 0l14.3 0.1c1.3 0 2.4 1.1 2.4 2.4 0 1.3-1.1 2.4-2.4 2.4zm-47.8-0.3q-0.1 0-0.1 0l-14.3-0.1c-1.3 0-2.4-1.1-2.4-2.4 0-1.3 1.2-2.3 2.4-2.4l14.4 0.1c1.3 0 2.4 1.1 2.3 2.4 0 1.3-1 2.4-2.3 2.4zm-47.9-0.3q0 0 0 0l-14.4-0.1c-1.3 0-2.3-1.1-2.3-2.4 0-1.3 1-2.4 2.4-2.4q0 0 0 0l14.3 0.1c1.3 0 2.4 1.1 2.4 2.4 0 1.4-1.1 2.4-2.4 2.4zm1611.3-0.2c-1 0-2-0.7-2.3-1.7-0.4-1.2 0.3-2.6 1.5-3 4.5-1.5 8.9-3.2 13.3-5 1.2-0.5 2.6 0.1 3.1 1.3 0.5 1.2 0 2.6-1.3 3.1-4.4 1.9-9 3.6-13.6 5.1q-0.3 0.2-0.7 0.2zm-1659.1-0.1q0 0 0 0h-14.4c-1.3-0.1-2.4-1.1-2.4-2.5 0-1.3 1.2-2.4 2.4-2.3l14.4 0.1c1.3 0 2.4 1 2.4 2.4 0 1.3-1.1 2.3-2.4 2.3zm-47.9-0.2q0 0 0 0l-14.3-0.1c-1.4 0-2.4-1.1-2.4-2.4 0-1.4 1.1-2.4 2.4-2.4q0 0 0 0l14.3 0.1c1.4 0 2.4 1.1 2.4 2.4 0 1.3-1.1 2.4-2.4 2.4zm-47.8-0.3q0 0 0 0l-14.4-0.1c-1.3 0-2.4-1.1-2.4-2.4 0-1.3 1.1-2.4 2.4-2.4q0 0 0 0l14.4 0.1c1.3 0 2.4 1.1 2.4 2.4 0 1.3-1.1 2.4-2.4 2.4zm-47.9-0.3q0 0 0 0l-14.3-0.1c-1.3 0-2.4-1.1-2.4-2.4 0-1.3 1.1-2.4 2.4-2.4q0 0 0 0l14.4 0.1c1.3 0 2.3 1.1 2.3 2.4 0 1.3-1 2.4-2.4 2.4zm-47.8-0.3q0 0 0 0l-14.4-0.1c-1.3 0-2.4-1.1-2.3-2.4 0-1.3 1-2.4 2.3-2.4q0.1 0 0.1 0l14.3 0.1c1.3 0 2.4 1.1 2.4 2.4 0 1.3-1.1 2.4-2.4 2.4zm-47.8-0.3q-0.1 0-0.1 0l-14.3-0.1c-1.3 0-2.4-1-2.4-2.4 0-1.3 1.1-2.3 2.4-2.3q0 0 0 0h14.4c1.3 0 2.4 1.1 2.3 2.4 0 1.4-1 2.4-2.3 2.4zm-47.9-0.5q0 0-0.1 0c-4.8-0.3-9.6-0.6-14.4-1.1-1.3-0.2-2.3-1.4-2.2-2.7 0.2-1.3 1.3-2.3 2.7-2.1 4.7 0.5 9.4 0.9 14.1 1.1 1.4 0.1 2.4 1.2 2.3 2.5-0.1 1.3-1.1 2.3-2.4 2.3zm-47.3-6.8q-0.2 0-0.5-0.1c-4.7-1.1-9.4-2.4-14-3.8-1.3-0.4-2-1.7-1.6-3 0.4-1.2 1.7-1.9 3-1.6 4.5 1.4 9.1 2.7 13.7 3.8 1.3 0.3 2.1 1.6 1.8 2.9-0.3 1-1.3 1.8-2.4 1.8zm2036.4-12c-0.8 0-1.5-0.4-2-1.1-0.7-1.1-0.4-2.6 0.7-3.3 4-2.6 7.8-5.4 11.5-8.2 1.1-0.8 2.6-0.6 3.4 0.4 0.8 1 0.6 2.5-0.4 3.4-3.8 2.9-7.8 5.7-11.9 8.4q-0.6 0.4-1.3 0.4zm-2081.5-3.5q-0.5 0-1-0.2c-4.4-2-8.7-4.1-13-6.4-1.2-0.6-1.6-2-1-3.2 0.6-1.2 2-1.6 3.2-1 4.2 2.2 8.5 4.3 12.8 6.2 1.2 0.6 1.7 2 1.2 3.2-0.4 0.9-1.3 1.4-2.2 1.4zm-41.5-23.7c-0.5 0-0.9-0.1-1.4-0.4-3.9-2.7-7.8-5.7-11.6-8.6-1-0.8-1.2-2.4-0.4-3.4 0.8-1 2.3-1.2 3.4-0.4 3.7 2.9 7.5 5.8 11.4 8.5 1.1 0.8 1.3 2.2 0.6 3.3-0.5 0.7-1.2 1-2 1zm2159.2-3.9c-0.6 0-1.1-0.2-1.6-0.6-1-0.9-1.1-2.4-0.2-3.4 3.2-3.5 6.2-7.2 9.1-10.9 0.8-1.1 2.3-1.2 3.3-0.4 1.1 0.8 1.3 2.3 0.5 3.3-3 3.8-6.1 7.6-9.3 11.2-0.5 0.5-1.1 0.8-1.8 0.8zm-2195.6-27c-0.6 0-1.2-0.2-1.7-0.7-3.3-3.5-6.6-7-9.8-10.7-0.9-1-0.7-2.5 0.2-3.3 1-0.9 2.6-0.8 3.4 0.2 3.1 3.5 6.4 7.1 9.7 10.4 0.9 1 0.9 2.5-0.1 3.4-0.5 0.5-1.1 0.7-1.7 0.7zm2222.6-12.4q-0.6 0-1.1-0.2c-1.2-0.6-1.7-2.1-1.1-3.2 2.1-4.2 4.1-8.5 5.9-12.9 0.5-1.2 1.9-1.8 3.1-1.3 1.3 0.5 1.8 1.9 1.3 3.1-1.8 4.5-3.8 8.9-6 13.2-0.4 0.9-1.3 1.3-2.1 1.3zm-2252.6-24.8c-0.7 0-1.5-0.3-2-1-2.6-4.1-5.2-8.2-7.6-12.4-0.7-1.1-0.3-2.6 0.8-3.2 1.2-0.7 2.7-0.3 3.3 0.8 2.4 4.1 4.9 8.2 7.5 12.1 0.8 1.1 0.5 2.6-0.6 3.3q-0.7 0.4-1.4 0.4zm2268.4-20.1q-0.3 0-0.5-0.1c-1.3-0.3-2.1-1.5-1.9-2.8 0.8-3.5 1.4-7.1 1.9-10.7l0.5-3.3c0.2-1.3 1.4-2.3 2.7-2 1.3 0.1 2.3 1.4 2.1 2.7l-0.5 3.3c-0.6 3.7-1.2 7.4-2 11-0.2 1.1-1.2 1.9-2.3 1.9zm-2290.9-22c-0.9 0-1.8-0.6-2.2-1.5-1.8-4.4-3.6-9-5.2-13.5-0.4-1.3 0.2-2.6 1.5-3.1 1.2-0.4 2.6 0.2 3 1.5 1.6 4.4 3.3 8.9 5.1 13.3 0.5 1.2 0 2.6-1.3 3.1q-0.4 0.2-0.9 0.2zm2298-25.4q-0.1 0.1-0.3 0c-1.3-0.2-2.2-1.4-2-2.7q0.9-7 1.9-14.2c0.2-1.3 1.4-2.2 2.7-2 1.3 0.1 2.2 1.3 2.1 2.7q-1 7.2-2 14.2c-0.2 1.2-1.2 2-2.4 2zm-2312.2-20.3c-1.1 0-2.1-0.8-2.3-1.9-1-4.7-1.8-9.5-2.5-14.2-0.2-1.4 0.7-2.6 2-2.8 1.3-0.1 2.5 0.7 2.7 2 0.7 4.7 1.5 9.4 2.5 14 0.3 1.3-0.6 2.6-1.9 2.9q-0.2 0-0.5 0zm2318.6-27.1q-0.2 0-0.3 0c-1.3-0.2-2.3-1.4-2.1-2.7l1.8-14.2c0.1-1.3 1.3-2.3 2.6-2.1 1.4 0.2 2.3 1.4 2.1 2.7l-1.8 14.2c-0.1 1.2-1.1 2.1-2.3 2.1zm-2323.9-20.3c-1.3 0-2.3-1.1-2.4-2.4l-0.4-14.3c-0.1-1.3 1-2.4 2.3-2.5 1.3-0.1 2.4 1 2.4 2.3l0.5 14.4c0 1.3-1 2.4-2.3 2.5q-0.1 0-0.1 0zm2329.6-27.2q-0.1 0-0.2 0c-1.3-0.2-2.3-1.3-2.1-2.7q0.8-7 1.6-14.2c0.1-1.3 1.3-2.2 2.6-2.1 1.3 0.1 2.3 1.3 2.1 2.6q-0.8 7.2-1.6 14.3c-0.1 1.2-1.2 2.1-2.4 2.1zm-2331.1-20.7c-1.3 0-2.4-1-2.4-2.3l-0.5-14.3c0-1.4 1-2.5 2.3-2.5 1.3-0.1 2.5 1 2.5 2.3l0.5 14.4c0 1.3-1 2.4-2.4 2.4q0 0 0 0zm2336.4-26.9q-0.1 0-0.3 0c-1.3-0.1-2.2-1.3-2.1-2.6q0.7-7.1 1.5-14.3c0.1-1.3 1.3-2.2 2.6-2.1 1.3 0.1 2.3 1.3 2.1 2.6q-0.7 7.2-1.4 14.3c-0.2 1.2-1.2 2.1-2.4 2.1zm-2338-20.9c-1.3 0-2.3-1-2.4-2.3l-0.4-14.4c-0.1-1.3 1-2.4 2.3-2.4 1.1-0.2 2.4 1 2.5 2.3l0.4 14.3c0.1 1.4-1 2.5-2.3 2.5q0 0-0.1 0zm2342.7-26.7q-0.1 0-0.3 0c-1.3-0.1-2.2-1.3-2.1-2.6q0.6-7.1 1.3-14.3c0.1-1.3 1.2-2.3 2.6-2.2 1.3 0.2 2.3 1.3 2.1 2.6q-0.6 7.2-1.3 14.3c-0.1 1.3-1.1 2.2-2.3 2.2zm-2344.2-21.1c-1.3 0-2.4-1-2.4-2.3l-0.5-14.4c0-1.3 1-2.4 2.4-2.4 1.1-0.2 2.4 0.9 2.4 2.3l0.5 14.3c0 1.3-1 2.4-2.3 2.5q-0.1 0-0.1 0zm2348.3-26.6q-0.1 0-0.2 0c-1.3-0.1-2.3-1.2-2.2-2.5l1.1-14.4c0.1-1.3 1.2-2.3 2.6-2.2 1.3 0.2 2.3 1.3 2.2 2.6l-1.1 14.3c-0.1 1.3-1.2 2.2-2.4 2.2zm-2349.8-21.2c-1.3 0-2.4-1.1-2.4-2.3l-0.5-14.4c0-1.3 1-2.4 2.3-2.5 1.3 0 2.4 1 2.5 2.4l0.4 14.3c0.1 1.3-0.9 2.4-2.3 2.5q0 0 0 0zm2353.4-26.5q-0.1 0-0.2 0c-1.3-0.1-2.3-1.2-2.2-2.5l0.9-14.4c0.1-1.3 1.2-2.2 2.6-2.2 1.3 0.1 2.3 1.2 2.2 2.6l-1 14.3c0 1.3-1.1 2.2-2.3 2.2zm-2355-21.4c-1.3 0-2.3-1-2.4-2.3l-0.4-14.3c-0.1-1.3 1-2.4 2.3-2.5 1.3-0.1 2.4 1 2.5 2.3l0.4 14.4c0.1 1.3-1 2.4-2.3 2.4q0 0-0.1 0zm2357.9-26.3q0 0-0.1 0c-1.3-0.1-2.3-1.3-2.3-2.6q0.4-7.1 0.8-14.3c0.1-1.3 1.2-2.3 2.5-2.3 1.4 0.1 2.4 1.2 2.3 2.6q-0.4 7.2-0.8 14.3c0 1.3-1.1 2.3-2.4 2.3zm-2359.4-21.5c-1.3 0-2.4-1-2.4-2.3l-0.5-14.3c0-1.4 1-2.5 2.3-2.5 1.3-0.1 2.5 1 2.5 2.3l0.5 14.4c0 1.3-1 2.4-2.3 2.4q-0.1 0-0.1 0zm2361.8-26.3q-0.1 0-0.1 0c-1.3-0.1-2.3-1.2-2.3-2.5q0.3-7.2 0.6-14.4c0-1.3 1.2-2.4 2.5-2.3 1.3 0.1 2.3 1.2 2.3 2.5q-0.3 7.2-0.6 14.4c-0.1 1.3-1.1 2.3-2.4 2.3zm-2363.4-21.5c-1.2 0-2.3-1-2.3-2.3l-0.5-14.4c-0.1-1.3 1-2.4 2.3-2.4 1.2-0.2 2.4 1 2.5 2.3l0.4 14.3c0.1 1.4-1 2.5-2.3 2.5q0 0-0.1 0zm2365.1-26.4q0 0 0 0c-1.4 0-2.4-1.1-2.4-2.4q0.2-7.2 0.4-14.4c0.1-1.3 1.1-2.3 2.5-2.3 1.3 0 2.3 1.1 2.3 2.5q-0.2 7.1-0.4 14.3c0 1.3-1.1 2.3-2.4 2.3zm-2366.6-21.4c-1.3 0-2.3-1-2.4-2.3l-0.4-14.4c-0.1-1.3 0.9-2.4 2.3-2.4 1.1-0.2 2.4 0.9 2.4 2.3l0.5 14.3c0 1.3-1 2.4-2.3 2.5q-0.1 0-0.1 0zm2367.7-26.4q0 0 0 0c-1.4 0-2.4-1.1-2.4-2.4q0.1-7.2 0.2-14.4c0-1.3 1.2-2.3 2.4-2.3 1.3 0 2.4 1.1 2.4 2.4q-0.1 7.2-0.2 14.3c0 1.3-1.1 2.4-2.4 2.4zm-2369.2-21.4c-1.3 0-2.4-1.1-2.4-2.4l-0.5-14.3c0-1.3 1-2.4 2.3-2.5 1.2-0.1 2.5 1 2.5 2.3l0.5 14.4c0 1.3-1 2.4-2.4 2.5q0 0 0 0zm2369.6-26.4c-1.3 0-2.4-1.1-2.4-2.4v-1.2q0-6.6 0-13.2c-0.1-1.3 1-2.4 2.3-2.4 1.4 0 2.4 1.1 2.4 2.4q0.1 6.6 0.1 13.2v1.2c0 1.3-1.1 2.4-2.4 2.4zm-2371.2-21.5c-1.3 0-2.3-1-2.4-2.3l-0.4-14.3c-0.1-1.3 1-2.4 2.3-2.5 1.3-0.2 2.4 1 2.5 2.3l0.4 14.4c0.1 1.3-1 2.4-2.3 2.4q0 0-0.1 0zm2370.8-26.4c-1.3 0-2.4-1-2.4-2.3q-0.1-7.2-0.2-14.4c-0.1-1.3 1-2.4 2.3-2.4 1.2-0.1 2.4 1 2.5 2.3q0.1 7.2 0.2 14.4c0 1.3-1 2.4-2.3 2.4q-0.1 0-0.1 0zm-2372.3-21.4c-1.3 0-2.4-1-2.4-2.3l-0.5-14.3c0-1.4 1-2.5 2.4-2.5 1.1-0.1 2.4 1 2.4 2.3l0.5 14.4c0 1.3-1 2.4-2.3 2.4q-0.1 0-0.1 0zm2371.2-26.4c-1.3 0-2.3-1-2.4-2.3q-0.2-7.2-0.5-14.3c0-1.4 1-2.5 2.3-2.5 1.4-0.1 2.5 1 2.5 2.3q0.3 7.2 0.5 14.3c0 1.4-1 2.5-2.3 2.5q-0.1 0-0.1 0zm-2372.7-21.4c-1.3 0-2.4-1-2.4-2.3l-0.5-14.4c0-1.3 1-2.4 2.3-2.4 1.3-0.1 2.4 1 2.5 2.3l0.4 14.3c0.1 1.4-0.9 2.5-2.3 2.5q0 0 0 0zm2370.8-26.4c-1.3 0-2.4-1-2.4-2.3q-0.4-7.1-0.8-14.3c0-1.3 1-2.4 2.3-2.5 1.3-0.1 2.4 0.9 2.5 2.2q0.4 7.2 0.8 14.4c0 1.3-1 2.4-2.3 2.5q-0.1 0-0.1 0zm-2372.4-21.4c-1.3 0-2.3-1-2.4-2.3l-0.4-14.4c-0.1-1.3 1-2.4 2.3-2.5 1.4 0.1 2.4 1 2.4 2.4l0.5 14.3c0.1 1.3-1 2.4-2.3 2.5q0 0-0.1 0zm2369.6-26.4c-1.3 0-2.3-0.9-2.4-2.2q-0.5-7.1-1-14.3c-0.1-1.3 0.9-2.5 2.2-2.6 1.4 0 2.5 0.9 2.5 2.3q0.6 7.1 1.1 14.3c0.1 1.3-0.9 2.4-2.3 2.5q0 0-0.1 0zm-2371.1-21.4c-1.3 0-2.4-1.1-2.4-2.4l-0.5-14.3c0-1.3 1-2.4 2.3-2.5 1.2-0.2 2.5 1 2.5 2.3l0.5 14.4c0 1.3-1 2.4-2.3 2.5q-0.1 0-0.1 0zm2367.4-26.3c-1.3 0-2.3-0.9-2.4-2.1q-0.6-7.2-1.3-14.3c-0.1-1.3 0.8-2.5 2.1-2.6 1.4-0.1 2.5 0.8 2.6 2.1q0.7 7.2 1.3 14.3c0.2 1.4-0.8 2.5-2.1 2.6q-0.1 0-0.2 0zm-2369-21.6c-1.2 0-2.3-1-2.3-2.3l-0.5-14.3c-0.1-1.3 1-2.5 2.3-2.5 1.2-0.1 2.4 1 2.5 2.3l0.4 14.4c0.1 1.3-1 2.4-2.3 2.4q0 0-0.1 0zm2364.3-26c-1.2 0-2.3-0.9-2.4-2.1q-0.8-7.1-1.6-14.3c-0.2-1.3 0.8-2.5 2.1-2.6 1.3-0.2 2.5 0.8 2.6 2.1q0.9 7.1 1.7 14.3c0.1 1.3-0.8 2.5-2.2 2.6q-0.1 0-0.2 0zm-2365.8-21.8c-1.3 0-2.3-1-2.4-2.3l-0.5-16.8h8.7c1.3 0 2.4 1.1 2.4 2.4 0 1.3-1.1 2.4-2.4 2.4h-3.8l0.4 11.8c0 1.4-1 2.5-2.3 2.5q-0.1 0-0.1 0zm2350.1-14.3h-14.4c-1.3 0-2.4-1.1-2.4-2.4 0-1.3 1.1-2.4 2.4-2.4h14.4c1.3 0 2.4 1.1 2.4 2.4 0 1.3-1.1 2.4-2.4 2.4zm-47.9 0h-14.3c-1.3 0-2.4-1.1-2.4-2.4 0-1.3 1.1-2.4 2.4-2.4h14.3c1.4 0 2.4 1.1 2.4 2.4 0 1.3-1 2.4-2.4 2.4zm-47.8 0h-14.4c-1.3 0-2.4-1.1-2.4-2.4 0-1.3 1.1-2.4 2.4-2.4h14.4c1.3 0 2.4 1.1 2.4 2.4 0 1.3-1.1 2.4-2.4 2.4zm-47.9 0h-14.3c-1.3 0-2.4-1.1-2.4-2.4 0-1.3 1.1-2.4 2.4-2.4h14.3c1.4 0 2.4 1.1 2.4 2.4 0 1.3-1 2.4-2.4 2.4zm-47.8 0h-14.4c-1.3 0-2.3-1.1-2.3-2.4 0-1.3 1-2.4 2.3-2.4h14.4c1.3 0 2.4 1.1 2.4 2.4 0 1.3-1.1 2.4-2.4 2.4zm-47.8 0h-14.4c-1.3 0-2.4-1.1-2.4-2.4 0-1.3 1.1-2.4 2.4-2.4h14.4c1.3 0 2.4 1.1 2.4 2.4 0 1.3-1.1 2.4-2.4 2.4zm-47.9 0h-14.3c-1.4 0-2.4-1.1-2.4-2.4 0-1.3 1-2.4 2.4-2.4h14.3c1.3 0 2.4 1.1 2.4 2.4 0 1.3-1.1 2.4-2.4 2.4zm-47.8 0h-14.4c-1.3 0-2.4-1.1-2.4-2.4 0-1.3 1.1-2.4 2.4-2.4h14.4c1.3 0 2.4 1.1 2.4 2.4 0 1.3-1.1 2.4-2.4 2.4zm-47.9 0h-14.3c-1.3 0-2.4-1.1-2.4-2.4 0-1.3 1.1-2.4 2.4-2.4h14.3c1.4 0 2.4 1.1 2.4 2.4 0 1.3-1 2.4-2.4 2.4zm-47.8 0h-14.4c-1.3 0-2.4-1.1-2.4-2.4 0-1.3 1.1-2.4 2.4-2.4h14.4c1.3 0 2.4 1.1 2.4 2.4 0 1.3-1.1 2.4-2.4 2.4zm-47.9 0h-14.3c-1.3 0-2.4-1.1-2.4-2.4 0-1.3 1.1-2.4 2.4-2.4h14.3c1.4 0 2.4 1.1 2.4 2.4 0 1.3-1 2.4-2.4 2.4zm-47.8 0h-14.4c-1.3 0-2.3-1.1-2.3-2.4 0-1.3 1-2.4 2.3-2.4h14.4c1.3 0 2.4 1.1 2.4 2.4 0 1.3-1.1 2.4-2.4 2.4zm-47.8 0h-14.4c-1.3 0-2.4-1.1-2.4-2.4 0-1.3 1.1-2.4 2.4-2.4h14.4c1.3 0 2.3 1.1 2.3 2.4 0 1.3-1 2.4-2.3 2.4zm-47.9 0h-14.3c-1.4 0-2.4-1.1-2.4-2.4 0-1.3 1-2.4 2.4-2.4h14.3c1.3 0 2.4 1.1 2.4 2.4 0 1.3-1.1 2.4-2.4 2.4zm-47.8 0h-14.4c-1.3 0-2.4-1.1-2.4-2.4 0-1.3 1.1-2.4 2.4-2.4h14.4c1.3 0 2.4 1.1 2.4 2.4 0 1.3-1.1 2.4-2.4 2.4zm-47.9 0h-14.3c-1.3 0-2.4-1.1-2.4-2.4 0-1.3 1.1-2.4 2.4-2.4h14.3c1.3 0 2.4 1.1 2.4 2.4 0 1.3-1.1 2.4-2.4 2.4zm-47.8 0h-14.4c-1.3 0-2.4-1.1-2.4-2.4 0-1.3 1.1-2.4 2.4-2.4h14.4c1.3 0 2.4 1.1 2.4 2.4 0 1.3-1.1 2.4-2.4 2.4zm-47.9 0h-14.3c-1.3 0-2.4-1.1-2.4-2.4 0-1.3 1.1-2.4 2.4-2.4h14.3c1.4 0 2.4 1.1 2.4 2.4 0 1.3-1 2.4-2.4 2.4zm-47.8 0h-14.4c-1.3 0-2.3-1.1-2.3-2.4 0-1.3 1-2.4 2.3-2.4h14.4c1.3 0 2.4 1.1 2.4 2.4 0 1.3-1.1 2.4-2.4 2.4zm-47.8 0h-14.4c-1.3 0-2.4-1.1-2.4-2.4 0-1.3 1.1-2.4 2.4-2.4h14.4c1.3 0 2.3 1.1 2.3 2.4 0 1.3-1 2.4-2.3 2.4zm-47.9 0h-14.3c-1.4 0-2.4-1.1-2.4-2.4 0-1.3 1-2.4 2.4-2.4h14.3c1.3 0 2.4 1.1 2.4 2.4 0 1.3-1.1 2.4-2.4 2.4zm-47.8 0h-14.4c-1.3 0-2.4-1.1-2.4-2.4 0-1.3 1.1-2.4 2.4-2.4h14.4c1.3 0 2.4 1.1 2.4 2.4 0 1.3-1.1 2.4-2.4 2.4zm-47.9 0h-14.3c-1.4 0-2.4-1.1-2.4-2.4 0-1.3 1-2.4 2.4-2.4h14.3c1.3 0 2.4 1.1 2.4 2.4 0 1.3-1.1 2.4-2.4 2.4zm-47.8 0h-14.4c-1.3 0-2.4-1.1-2.4-2.4 0-1.3 1.1-2.4 2.4-2.4h14.4c1.3 0 2.4 1.1 2.4 2.4 0 1.3-1.1 2.4-2.4 2.4zm-47.9 0h-14.3c-1.3 0-2.4-1.1-2.4-2.4 0-1.3 1.1-2.4 2.4-2.4h14.3c1.4 0 2.4 1.1 2.4 2.4 0 1.3-1 2.4-2.4 2.4zm-47.8 0h-14.4c-1.3 0-2.3-1.1-2.3-2.4 0-1.3 1-2.4 2.3-2.4h14.4c1.3 0 2.4 1.1 2.4 2.4 0 1.3-1.1 2.4-2.4 2.4zm-47.8 0h-14.4c-1.3 0-2.4-1.1-2.4-2.4 0-1.3 1.1-2.4 2.4-2.4h14.4c1.3 0 2.3 1.1 2.3 2.4 0 1.3-1 2.4-2.3 2.4zm-47.9 0h-14.3c-1.4 0-2.4-1.1-2.4-2.4 0-1.3 1-2.4 2.4-2.4h14.3c1.3 0 2.4 1.1 2.4 2.4 0 1.3-1.1 2.4-2.4 2.4zm-47.8 0h-14.4c-1.3 0-2.4-1.1-2.4-2.4 0-1.3 1.1-2.4 2.4-2.4h14.4c1.3 0 2.4 1.1 2.4 2.4 0 1.3-1.1 2.4-2.4 2.4zm-47.9 0h-14.3c-1.4 0-2.4-1.1-2.4-2.4 0-1.3 1-2.4 2.4-2.4h14.3c1.3 0 2.4 1.1 2.4 2.4 0 1.3-1.1 2.4-2.4 2.4zm-47.8 0h-14.4c-1.3 0-2.4-1.1-2.4-2.4 0-1.3 1.1-2.4 2.4-2.4h14.4c1.3 0 2.4 1.1 2.4 2.4 0 1.3-1.1 2.4-2.4 2.4zm-47.9 0h-14.3c-1.3 0-2.4-1.1-2.4-2.4 0-1.3 1.1-2.4 2.4-2.4h14.3c1.4 0 2.4 1.1 2.4 2.4 0 1.3-1 2.4-2.4 2.4zm-47.8 0h-14.4c-1.3 0-2.4-1.1-2.4-2.4 0-1.3 1.1-2.4 2.4-2.4h14.4c1.3 0 2.4 1.1 2.4 2.4 0 1.3-1.1 2.4-2.4 2.4zm-47.9 0h-14.3c-1.3 0-2.4-1.1-2.4-2.4 0-1.3 1.1-2.4 2.4-2.4h14.3c1.4 0 2.4 1.1 2.4 2.4 0 1.3-1 2.4-2.4 2.4zm-47.8 0h-14.3c-1.4 0-2.4-1.1-2.4-2.4 0-1.3 1-2.4 2.4-2.4h14.3c1.3 0 2.4 1.1 2.4 2.4 0 1.3-1.1 2.4-2.4 2.4zm-47.8 0h-14.4c-1.3 0-2.4-1.1-2.4-2.4 0-1.3 1.1-2.4 2.4-2.4h14.4c1.3 0 2.4 1.1 2.4 2.4 0 1.3-1.1 2.4-2.4 2.4zm-47.9 0h-14.3c-1.4 0-2.4-1.1-2.4-2.4 0-1.3 1-2.4 2.4-2.4h14.3c1.3 0 2.4 1.1 2.4 2.4 0 1.3-1.1 2.4-2.4 2.4zm-47.8 0h-14.4c-1.3 0-2.4-1.1-2.4-2.4 0-1.3 1.1-2.4 2.4-2.4h14.4c1.3 0 2.4 1.1 2.4 2.4 0 1.3-1.1 2.4-2.4 2.4zm-47.9 0h-14.3c-1.3 0-2.4-1.1-2.4-2.4 0-1.3 1.1-2.4 2.4-2.4h14.3c1.4 0 2.4 1.1 2.4 2.4 0 1.3-1 2.4-2.4 2.4zm-47.8 0h-14.4c-1.3 0-2.4-1.1-2.4-2.4 0-1.3 1.1-2.4 2.4-2.4h14.4c1.3 0 2.4 1.1 2.4 2.4 0 1.3-1.1 2.4-2.4 2.4zm-47.9 0h-14.3c-1.3 0-2.4-1.1-2.4-2.4 0-1.3 1.1-2.4 2.4-2.4h14.3c1.4 0 2.4 1.1 2.4 2.4 0 1.3-1 2.4-2.4 2.4zm-47.8 0h-14.3c-1.4 0-2.4-1.1-2.4-2.4 0-1.3 1-2.4 2.4-2.4h14.3c1.3 0 2.4 1.1 2.4 2.4 0 1.3-1.1 2.4-2.4 2.4zm-47.8 0h-14.4c-1.3 0-2.4-1.1-2.4-2.4 0-1.3 1.1-2.4 2.4-2.4h14.4c1.3 0 2.4 1.1 2.4 2.4 0 1.3-1.1 2.4-2.4 2.4zm-47.9 0h-14.3c-1.4 0-2.4-1.1-2.4-2.4 0-1.3 1-2.4 2.4-2.4h14.3c1.3 0 2.4 1.1 2.4 2.4 0 1.3-1.1 2.4-2.4 2.4zm-47.8 0h-14.4c-1.3 0-2.4-1.1-2.4-2.4 0-1.3 1.1-2.4 2.4-2.4h14.4c1.3 0 2.4 1.1 2.4 2.4 0 1.3-1.1 2.4-2.4 2.4zm-47.9 0h-14.3c-1.3 0-2.4-1.1-2.4-2.4 0-1.3 1.1-2.4 2.4-2.4h14.3c1.4 0 2.4 1.1 2.4 2.4 0 1.3-1 2.4-2.4 2.4zm-47.8 0h-14.4c-1.3 0-2.4-1.1-2.4-2.4 0-1.3 1.1-2.4 2.4-2.4h14.4c1.3 0 2.4 1.1 2.4 2.4 0 1.3-1.1 2.4-2.4 2.4zm-47.9 0h-14.3c-1.3 0-2.4-1.1-2.4-2.4 0-1.3 1.1-2.4 2.4-2.4h14.3c1.4 0 2.4 1.1 2.4 2.4 0 1.3-1 2.4-2.4 2.4zm-47.8 0h-14.4c-1.3 0-2.3-1.1-2.3-2.4 0-1.3 1-2.4 2.3-2.4h14.4c1.3 0 2.4 1.1 2.4 2.4 0 1.3-1.1 2.4-2.4 2.4z"/>
				<path id="&lt;Path&gt;" class="s8" d="m975.7 2004.6l5.9-63.5c6.7-15.1 20.6-25.8 37-28.4 61.4-9.8 213.6-27 286.9 27.8l11 73.7z"/>
				<path id="&lt;Path&gt;" class="s8" d="m1167.4 1943.5q-21.2 5.2-42.5 0c-17.1-4.2-29.2-19.6-29.2-37.2v-198.7h101.1v198.6c0 17.7-12.1 33.1-29.4 37.3z"/>
				<path id="&lt;Path&gt;" class="s8" d="m1955.1 2004.6l6-63.5c6.6-15.1 20.5-25.8 37-28.4 61.3-9.8 213.6-27 286.9 27.8l10.9 73.7z"/>
				<path id="&lt;Path&gt;" class="s8" d="m2146.9 1943.5q-21.2 5.2-42.5 0c-17.2-4.2-29.3-19.6-29.3-37.2v-219.6h101.2v219.5c0 17.7-12.2 33.1-29.4 37.3z"/>
				<path id="&lt;Path&gt;" class="s8" d="m1038.1 1720.6c-9.5-40.6-4.6-80.6 2.6-110.4 7.7-31.4 30-57.1 60.1-69 284.7-112.6 801.1-112.8 1004-108 61 1.5 112.7 46.1 121.6 106.2 7.8 52.9 2.6 103.8-3.4 137.9-4.2 24.3-25.3 42.2-50.1 43l-1087.5 36c-22.2 0.8-42.2-14.1-47.3-35.7z"/>
				<path id="&lt;Path&gt;" class="s9" d="m1066.6 1699.8c-2.5 0-4.5-1.8-4.8-4.3-0.2-1.7-4.1-42.6 6.5-82 8.1-29.9 31.8-53.9 61.8-62.7 60.6-17.8 176.3-48 270.9-50.7 2.7-0.1 4.9 2 4.9 4.7 0.1 2.6-2 4.8-4.6 4.9-93.5 2.6-208.4 32.6-268.5 50.2-26.9 7.9-48 29.4-55.2 56.1-10.2 37.6-6.3 78.1-6.3 78.5 0.3 2.7-1.6 5-4.2 5.3q-0.3 0-0.5 0z"/>
				<path id="&lt;Path&gt;" class="s5" d="m471.1 1979.9c351.3-4.5 1871.2-20.5 2312.7 32.8 38 4.6 69.1 32.4 77.3 69.6 26.1 118 78.6 392 72.3 663.5-0.8 37-27.9 68.2-64.4 75.1l-1007.8 190.7h-358l-1073.8-213.5c-37.8-7.5-65.7-39.6-67.7-78-7-136.6-17.9-457.2 19.1-663.6 7.8-43.8 45.5-76 90.3-76.6z"/>
				<path id="&lt;Compound Path&gt;" class="s4" d="m1852.9 2927.1h-14.3c-1.3 0-2.4-1.1-2.4-2.4 0-1.3 1.1-2.4 2.4-2.4h14.3c1.4 0 2.4 1.1 2.4 2.4 0 1.3-1 2.4-2.4 2.4zm-47.8 0h-14.4c-1.3 0-2.4-1.1-2.4-2.4 0-1.3 1.1-2.4 2.4-2.4h14.4c1.3 0 2.4 1.1 2.4 2.4 0 1.3-1.1 2.4-2.4 2.4zm-47.9 0h-14.3c-1.3 0-2.4-1.1-2.4-2.4 0-1.3 1.1-2.4 2.4-2.4h14.3c1.4 0 2.4 1.1 2.4 2.4 0 1.3-1 2.4-2.4 2.4zm-47.8 0h-14.4c-1.3 0-2.3-1.1-2.3-2.4 0-1.3 1-2.4 2.3-2.4h14.4c1.3 0 2.4 1.1 2.4 2.4 0 1.3-1.1 2.4-2.4 2.4zm-47.8 0h-14.4c-1.3 0-2.4-1.1-2.4-2.4 0-1.3 1.1-2.4 2.4-2.4h14.4c1.3 0 2.4 1.1 2.4 2.4 0 1.3-1.1 2.4-2.4 2.4zm-47.9 0h-14.3c-1.4 0-2.4-1.1-2.4-2.4 0-1.3 1-2.4 2.4-2.4h14.3c1.3 0 2.4 1.1 2.4 2.4 0 1.3-1.1 2.4-2.4 2.4zm-47.8 0h-14.4c-1.3 0-2.4-1.1-2.4-2.4 0-1.3 1.1-2.4 2.4-2.4h14.4c1.3 0 2.4 1.1 2.4 2.4 0 1.3-1.1 2.4-2.4 2.4zm-47.9 0h-6.2l-14.6-2.8c-1.3-0.3-2.1-1.5-1.8-2.8 0.2-1.3 1.5-2.2 2.8-1.9l14 2.8 5.8-0.1c1.4 0 2.4 1.1 2.4 2.4 0 1.3-1 2.4-2.4 2.4zm367.8-6.2c-1.1 0-2.1-0.8-2.3-1.9-0.3-1.3 0.6-2.6 1.9-2.8l14.1-2.7c1.3-0.2 2.5 0.6 2.8 1.9 0.2 1.3-0.6 2.6-1.9 2.8l-14.1 2.7q-0.2 0-0.5 0zm-420.9-3.1q-0.3 0-0.5-0.1l-14.1-2.8c-1.3-0.2-2.1-1.5-1.9-2.8 0.3-1.3 1.5-2.1 2.8-1.9l14.1 2.8c1.3 0.3 2.2 1.6 1.9 2.9-0.2 1.1-1.2 1.9-2.3 1.9zm467.9-5.8c-1.1 0-2.1-0.8-2.3-1.9-0.2-1.3 0.6-2.6 1.9-2.8l14.1-2.7c1.3-0.2 2.6 0.6 2.8 1.9 0.2 1.3-0.6 2.6-1.9 2.8l-14.1 2.7q-0.2 0-0.5 0zm-514.9-3.5q-0.2 0-0.4-0.1l-14.1-2.8c-1.3-0.2-2.2-1.5-1.9-2.8 0.3-1.3 1.5-2.1 2.8-1.9l14.1 2.8c1.3 0.3 2.1 1.5 1.9 2.8-0.3 1.2-1.3 2-2.4 2zm562-5.4c-1.2 0-2.2-0.8-2.4-1.9-0.2-1.3 0.6-2.6 1.9-2.8l14.1-2.7c1.3-0.2 2.6 0.6 2.8 1.9 0.3 1.3-0.6 2.6-1.9 2.8l-14.1 2.7q-0.2 0-0.4 0zm-608.9-4q-0.2 0-0.5 0l-14-2.8c-1.3-0.3-2.2-1.5-1.9-2.8 0.2-1.3 1.5-2.2 2.8-1.9l14.1 2.8c1.3 0.2 2.1 1.5 1.8 2.8-0.2 1.1-1.2 1.9-2.3 1.9zm655.9-4.9c-1.2 0-2.2-0.8-2.4-1.9-0.2-1.3 0.6-2.6 1.9-2.8l14.1-2.7c1.3-0.2 2.6 0.6 2.8 1.9 0.3 1.3-0.6 2.6-1.9 2.8l-14.1 2.7q-0.2 0-0.4 0zm-702.8-4.4q-0.3 0-0.5 0l-14.1-2.8c-1.3-0.3-2.1-1.6-1.8-2.9 0.2-1.3 1.5-2.1 2.8-1.8l14 2.8c1.3 0.2 2.2 1.5 1.9 2.8-0.2 1.1-1.2 1.9-2.3 1.9zm749.8-4.5c-1.2 0-2.2-0.8-2.4-1.9-0.2-1.3 0.6-2.6 1.9-2.8l14.1-2.7c1.3-0.2 2.6 0.6 2.8 1.9 0.3 1.3-0.6 2.6-1.9 2.8l-14.1 2.7q-0.2 0-0.4 0zm-796.7-4.8q-0.3 0-0.5-0.1l-14.1-2.8c-1.3-0.2-2.1-1.5-1.9-2.8 0.3-1.3 1.5-2.1 2.8-1.9l14.1 2.8c1.3 0.3 2.2 1.6 1.9 2.8-0.2 1.2-1.2 2-2.3 2zm843.7-4.1c-1.1 0-2.1-0.8-2.4-1.9-0.2-1.3 0.6-2.6 1.9-2.8l14.1-2.7c1.4-0.2 2.6 0.6 2.8 1.9 0.3 1.3-0.6 2.6-1.9 2.8l-14.1 2.7q-0.2 0-0.4 0zm-890.7-5.3q-0.2 0-0.4 0l-14.1-2.8c-1.3-0.3-2.2-1.5-1.9-2.8 0.3-1.3 1.5-2.2 2.8-1.9l14.1 2.8c1.3 0.3 2.1 1.5 1.9 2.8-0.3 1.2-1.3 1.9-2.4 1.9zm937.7-3.6c-1.1 0-2.1-0.8-2.4-1.9-0.2-1.3 0.7-2.5 2-2.8l14.1-2.7c1.3-0.2 2.5 0.6 2.7 1.9 0.3 1.3-0.6 2.6-1.9 2.8l-14.1 2.7q-0.2 0-0.4 0zm-984.6-5.7q-0.2 0-0.5 0l-14-2.8c-1.3-0.3-2.2-1.5-1.9-2.8 0.2-1.3 1.5-2.2 2.8-1.9l14.1 2.8c1.3 0.2 2.1 1.5 1.8 2.8-0.2 1.1-1.2 1.9-2.3 1.9zm1031.6-3.1c-1.1 0-2.1-0.8-2.3-2-0.3-1.3 0.6-2.5 1.9-2.8l14.1-2.7c1.3-0.2 2.5 0.7 2.8 2 0.2 1.2-0.7 2.5-1.9 2.7l-14.2 2.7q-0.2 0.1-0.4 0.1zm-1078.5-6.2q-0.3 0-0.5-0.1l-14.1-2.8c-1.3-0.2-2.1-1.5-1.8-2.8 0.2-1.3 1.5-2.1 2.8-1.8l14 2.8c1.3 0.2 2.2 1.5 1.9 2.8-0.2 1.1-1.2 1.9-2.3 1.9zm1125.5-2.7c-1.1 0-2.1-0.8-2.3-2-0.3-1.3 0.6-2.5 1.9-2.8l14.1-2.6c1.3-0.3 2.5 0.6 2.8 1.9 0.2 1.3-0.6 2.5-1.9 2.8l-14.1 2.6q-0.3 0.1-0.5 0.1zm-1172.4-6.6q-0.3 0-0.5-0.1l-14.1-2.8c-1.3-0.2-2.1-1.5-1.9-2.8 0.3-1.3 1.5-2.1 2.8-1.9l14.1 2.8c1.3 0.3 2.2 1.5 1.9 2.8-0.2 1.2-1.2 2-2.3 2zm1219.4-2.3c-1.1 0-2.1-0.8-2.3-2-0.3-1.3 0.6-2.5 1.9-2.8l14.1-2.6c1.3-0.3 2.5 0.6 2.8 1.9 0.2 1.3-0.6 2.5-1.9 2.8l-14.1 2.6q-0.3 0.1-0.5 0.1zm-1266.4-7.1q-0.2 0-0.4 0l-14.1-2.8c-1.3-0.3-2.2-1.5-1.9-2.8 0.3-1.3 1.5-2.2 2.8-1.9l14.1 2.8c1.3 0.3 2.1 1.5 1.9 2.8-0.3 1.1-1.3 1.9-2.4 1.9zm1313.4-1.8c-1.1 0-2.1-0.8-2.3-2-0.3-1.3 0.6-2.5 1.9-2.8l14.1-2.6c1.3-0.3 2.5 0.6 2.8 1.9 0.2 1.3-0.6 2.5-1.9 2.8l-14.1 2.6q-0.2 0.1-0.5 0.1zm-1360.3-7.5q-0.2 0-0.5 0l-14-2.8c-1.3-0.3-2.2-1.6-1.9-2.9 0.2-1.2 1.5-2.1 2.8-1.8l14.1 2.8c1.3 0.2 2.1 1.5 1.8 2.8-0.2 1.1-1.2 1.9-2.3 1.9zm1407.3-1.4c-1.1 0-2.1-0.8-2.3-2-0.3-1.3 0.6-2.5 1.9-2.8l14.1-2.6c1.3-0.3 2.6 0.6 2.8 1.9 0.2 1.3-0.6 2.5-1.9 2.8l-14.1 2.6q-0.2 0.1-0.5 0.1zm-1454.2-7.9q-0.3 0-0.5-0.1l-14.1-2.8c-1.3-0.2-2.1-1.5-1.8-2.8 0.2-1.3 1.4-2.1 2.8-1.9l14 2.8c1.3 0.3 2.2 1.6 1.9 2.9-0.2 1.1-1.2 1.9-2.3 1.9zm1501.2-1c-1.1 0-2.1-0.8-2.3-2-0.2-1.3 0.6-2.5 1.9-2.8l14.1-2.6c1.3-0.3 2.6 0.6 2.8 1.9 0.3 1.3-0.6 2.5-1.9 2.8l-14.1 2.6q-0.2 0.1-0.5 0.1zm-1548.1-8.4q-0.3 0.1-0.5 0l-14.1-2.8c-1.3-0.3-2.1-1.5-1.9-2.8 0.3-1.3 1.5-2.2 2.8-1.9l14.1 2.8c1.3 0.3 2.2 1.5 1.9 2.8-0.2 1.2-1.2 1.9-2.3 1.9zm1595.2-0.5c-1.2 0-2.2-0.8-2.4-2-0.2-1.3 0.6-2.5 1.9-2.8l14.1-2.6c1.3-0.3 2.6 0.6 2.8 1.9 0.3 1.3-0.6 2.5-1.9 2.8l-14.1 2.6q-0.2 0.1-0.4 0.1zm-1642.2-8.8q-0.2 0-0.4 0l-14.1-2.8c-1.3-0.3-2.2-1.5-1.9-2.8 0.3-1.3 1.5-2.2 2.8-1.9l14.1 2.8c1.3 0.2 2.1 1.5 1.9 2.8-0.3 1.1-1.3 1.9-2.4 1.9zm1689.2-0.1c-1.2 0-2.2-0.8-2.4-2-0.2-1.2 0.6-2.5 1.9-2.7l14.1-2.7c1.3-0.2 2.6 0.6 2.8 1.9 0.3 1.3-0.6 2.5-1.9 2.8l-14.1 2.7q-0.2 0-0.4 0zm47-8.9c-1.2 0-2.2-0.8-2.4-1.9-0.2-1.3 0.6-2.6 1.9-2.8l14.1-2.7c1.3-0.3 2.6 0.6 2.8 1.9 0.3 1.3-0.6 2.5-1.9 2.8l-14.1 2.7q-0.2 0-0.4 0zm-1783.1-0.3q-0.2 0-0.5-0.1l-14-2.8c-1.3-0.2-2.2-1.5-1.9-2.8 0.2-1.3 1.5-2.1 2.8-1.8l14.1 2.8c1.3 0.2 2.1 1.5 1.8 2.8-0.2 1.1-1.2 1.9-2.3 1.9zm1830.1-8.6c-1.1 0-2.1-0.8-2.4-1.9-0.2-1.3 0.6-2.6 1.9-2.8l14.1-2.7c1.4-0.2 2.6 0.6 2.8 1.9 0.3 1.3-0.6 2.6-1.9 2.8l-14.1 2.7q-0.2 0-0.4 0zm-1877-0.7q-0.3 0-0.5-0.1l-14.1-2.8c-1.3-0.2-2.1-1.5-1.8-2.8 0.2-1.3 1.4-2.2 2.8-1.9l14 2.8c1.3 0.3 2.2 1.5 1.9 2.8-0.2 1.2-1.2 2-2.3 2zm1924-8.2c-1.1 0-2.1-0.8-2.4-1.9-0.2-1.3 0.7-2.6 2-2.8l14.1-2.7c1.3-0.2 2.5 0.6 2.8 1.9 0.2 1.3-0.7 2.6-2 2.8l-14.1 2.7q-0.2 0-0.4 0zm-1970.9-1.2q-0.3 0-0.5 0l-14.1-2.8c-1.3-0.3-2.1-1.5-1.9-2.8 0.3-1.3 1.5-2.2 2.8-1.9l14.1 2.8c1.3 0.3 2.2 1.5 1.9 2.8-0.2 1.1-1.2 1.9-2.3 1.9zm2017.9-7.7c-1.1 0-2.1-0.8-2.3-1.9-0.3-1.3 0.6-2.6 1.9-2.8l14.1-2.7c1.3-0.2 2.5 0.6 2.8 1.9 0.2 1.3-0.6 2.6-1.9 2.8l-14.1 2.7q-0.3 0-0.5 0zm-2064.9-1.6q-0.2 0-0.4 0l-14.1-2.8c-1.3-0.3-2.2-1.6-1.9-2.8 0.3-1.3 1.5-2.2 2.8-1.9l14.1 2.8c1.3 0.2 2.1 1.5 1.9 2.8-0.3 1.1-1.3 1.9-2.4 1.9zm2111.9-7.3c-1.1 0-2.1-0.8-2.3-1.9-0.3-1.3 0.6-2.6 1.9-2.8l14.1-2.7c1.3-0.2 2.5 0.6 2.8 1.9 0.2 1.3-0.6 2.6-1.9 2.8l-14.1 2.7q-0.3 0-0.5 0zm-2158.8-2q-0.2 0-0.5-0.1l-14-2.8c-1.3-0.2-2.2-1.5-1.9-2.8 0.2-1.3 1.5-2.1 2.8-1.9l14.1 2.8c1.3 0.3 2.1 1.6 1.8 2.9-0.2 1.1-1.2 1.9-2.3 1.9zm2205.8-6.9c-1.1 0-2.1-0.8-2.3-1.9-0.3-1.3 0.6-2.6 1.9-2.8l14.1-2.7c1.3-0.2 2.5 0.6 2.8 1.9 0.2 1.3-0.6 2.6-1.9 2.8l-14.1 2.7q-0.3 0-0.5 0zm-2252.7-2.4q-0.3 0-0.5-0.1l-14.1-2.8c-1.3-0.3-2.1-1.5-1.8-2.8 0.2-1.3 1.5-2.2 2.8-1.9l14 2.8c1.3 0.3 2.2 1.5 1.9 2.8-0.2 1.2-1.2 2-2.3 2zm-46.9-9.4q-0.3 0-0.5 0l-14.1-2.8c-1.3-0.3-2.1-1.5-1.9-2.8 0.3-1.3 1.5-2.2 2.8-1.9l14.1 2.8c1.3 0.2 2.2 1.5 1.9 2.8-0.2 1.1-1.2 1.9-2.3 1.9zm-47-9.3q-0.2 0-0.4-0.1l-14.1-2.8c-1.3-0.2-2.2-1.5-1.9-2.8 0.3-1.3 1.5-2.1 2.8-1.8l14.1 2.8c1.3 0.2 2.1 1.5 1.9 2.8-0.3 1.1-1.3 1.9-2.4 1.9zm2367.7-9.5q0 0 0 0c-1.3 0-2.4-1.1-2.4-2.4v-8.7-5.7c0-1.3 1.1-2.4 2.4-2.4 1.3 0 2.4 1.1 2.4 2.4v5.7 8.7c0 1.3-1.1 2.4-2.4 2.4zm-2399.6-12.8c-1.3 0-2.3-1-2.4-2.3q-0.3-6.9-0.6-14.3c-0.1-1.3 0.9-2.5 2.3-2.5 1.3-0.1 2.4 0.9 2.4 2.3q0.4 7.4 0.7 14.3c0.1 1.3-0.9 2.4-2.3 2.5q0 0-0.1 0zm2399.2-35.1c-1.3 0-2.3-1-2.4-2.3q-0.1-7.2-0.3-14.3c0-1.4 1-2.4 2.3-2.5 1.5-0.1 2.4 1 2.5 2.3q0.2 7.2 0.3 14.4c0 1.3-1 2.4-2.3 2.4q-0.1 0-0.1 0zm-2401.2-12.7c-1.3 0-2.4-1-2.4-2.3l-0.6-14.4c0-1.3 1-2.4 2.3-2.4 1.3-0.1 2.5 0.9 2.5 2.3l0.6 14.3c0 1.3-1 2.4-2.3 2.5q-0.1 0-0.1 0zm2399.8-35.1c-1.3 0-2.4-1-2.4-2.2q-0.3-7.2-0.7-14.3c0-1.4 1-2.5 2.3-2.5 1.3-0.1 2.5 0.9 2.5 2.2q0.4 7.2 0.7 14.4c0 1.3-1 2.4-2.3 2.4q-0.1 0-0.1 0zm-2401.5-12.7c-1.3 0-2.3-1.1-2.4-2.4l-0.4-14.3c0-1.3 1-2.4 2.3-2.5 1.4 0.1 2.5 1 2.5 2.3l0.4 14.4c0 1.3-1 2.4-2.3 2.5q-0.1 0-0.1 0zm2399-35c-1.2 0-2.3-1-2.4-2.3q-0.4-7.1-0.9-14.3c-0.1-1.3 0.9-2.4 2.2-2.5 1.4 0 2.5 0.9 2.6 2.2q0.5 7.2 0.9 14.4c0.1 1.3-0.9 2.4-2.2 2.5q-0.1 0-0.2 0zm-2400.2-12.9c-1.3 0-2.4-1-2.4-2.3l-0.3-14.4c0-1.3 1-2.4 2.3-2.4 1.3-0.1 2.5 1 2.5 2.3l0.3 14.4c0 1.3-1 2.4-2.4 2.4q0 0 0 0zm2396.8-34.9c-1.2 0-2.3-0.9-2.4-2.2q-0.5-7.1-1.2-14.3c-0.1-1.3 0.9-2.4 2.2-2.5 1.3-0.2 2.5 0.8 2.6 2.1q0.6 7.2 1.2 14.4c0.1 1.3-0.9 2.4-2.2 2.5q-0.1 0-0.2 0zm-2397.6-12.9c-1.3 0-2.4-1.1-2.4-2.4l-0.2-14.4c0-1.3 1.1-2.4 2.4-2.4q0 0 0 0c1.3 0 2.4 1.1 2.4 2.4l0.2 14.4c0 1.3-1.1 2.4-2.4 2.4q0 0 0 0zm2393.4-34.7c-1.3 0-2.3-1-2.4-2.2q-0.7-7.2-1.5-14.3c-0.1-1.3 0.9-2.5 2.2-2.6 1.3-0.1 2.5 0.8 2.6 2.1q0.7 7.2 1.4 14.3c0.2 1.4-0.8 2.5-2.1 2.7q-0.1 0-0.2 0zm-2393.7-13.2c-1.4 0-2.4-1-2.4-2.4v-8.2-6.1c0-1.3 1-2.4 2.3-2.4h0.1c1.3 0 2.3 1.1 2.3 2.4v6.1 8.2c0 1.3-1 2.4-2.3 2.4q0 0 0 0zm2388.6-34.4c-1.2 0-2.2-0.9-2.4-2.1q-0.8-7.2-1.6-14.3c-0.2-1.3 0.7-2.5 2.1-2.7 1.3-0.1 2.5 0.8 2.6 2.1q0.9 7.1 1.7 14.3c0.1 1.3-0.8 2.5-2.1 2.7q-0.2 0-0.3 0zm-2388.5-13.4q0 0 0 0c-1.3 0-2.4-1.1-2.4-2.4q0.1-7.2 0.2-14.4c0-1.3 1.1-2.3 2.4-2.3q0 0 0 0c1.3 0 2.4 1.1 2.4 2.4q-0.1 7.2-0.2 14.3c0 1.3-1.1 2.4-2.4 2.4zm2382.7-34.1c-1.2 0-2.2-0.9-2.4-2.1q-0.9-7.2-1.9-14.2c-0.2-1.4 0.8-2.6 2.1-2.7 1.3-0.2 2.5 0.7 2.7 2q0.9 7.1 1.9 14.3c0.1 1.3-0.8 2.5-2.1 2.6q-0.2 0.1-0.3 0.1zm-2381.9-13.7q-0.1 0-0.1 0c-1.3-0.1-2.4-1.2-2.3-2.5q0.1-7.2 0.3-14.3c0-1.4 1.1-2.5 2.5-2.4 1.3 0.1 2.3 1.2 2.3 2.5q-0.2 7.2-0.3 14.3c-0.1 1.3-1.1 2.4-2.4 2.4zm2375.3-33.8c-1.1 0-2.2-0.8-2.3-2q-1.1-7.2-2.1-14.2c-0.2-1.3 0.7-2.5 2-2.7 1.3-0.2 2.5 0.7 2.7 2q1.1 7 2.1 14.2c0.2 1.3-0.7 2.5-2 2.7q-0.2 0-0.4 0zm-2374-14.1q0 0 0 0c-1.4 0-2.4-1.1-2.3-2.4q0.2-7.2 0.5-14.4c0.1-1.3 1.3-2.4 2.5-2.3 1.3 0 2.3 1.2 2.3 2.5q-0.3 7.1-0.6 14.3c0 1.3-1.1 2.3-2.4 2.3zm2366.8-33.2c-1.2 0-2.2-0.8-2.4-2q-1.1-7.1-2.3-14.1c-0.2-1.3 0.7-2.6 2-2.8 1.3-0.2 2.5 0.7 2.7 2q1.2 7 2.3 14.2c0.3 1.3-0.6 2.5-1.9 2.7q-0.2 0-0.4 0zm-2364.6-14.6q-0.1 0-0.2 0c-1.3-0.1-2.3-1.2-2.2-2.5q0.4-7.2 0.8-14.4c0.1-1.3 1.2-2.3 2.5-2.3 1.3 0.1 2.3 1.3 2.3 2.6q-0.5 7.1-0.8 14.3c-0.1 1.3-1.2 2.3-2.4 2.3zm2356.6-32.6c-1.1 0-2.1-0.8-2.3-2q-1.3-7.1-2.5-14.1c-0.3-1.3 0.6-2.5 1.9-2.8 1.3-0.2 2.6 0.7 2.8 2q1.2 6.9 2.5 14.1c0.2 1.3-0.6 2.6-1.9 2.8q-0.3 0-0.5 0zm-2353.6-15.2q-0.1 0-0.2 0c-1.3-0.1-2.3-1.3-2.2-2.6q0.5-7.2 1.1-14.3c0.1-1.3 1.2-2.3 2.6-2.2 1.3 0.1 2.3 1.3 2.1 2.6q-0.5 7.1-1 14.3c-0.1 1.2-1.2 2.2-2.4 2.2zm2345-31.9c-1.1 0-2.1-0.8-2.3-1.9q-1.4-7.2-2.7-14.1c-0.3-1.3 0.6-2.6 1.9-2.8 1.2-0.3 2.5 0.6 2.8 1.9q1.3 6.9 2.7 14.1c0.2 1.3-0.6 2.5-1.9 2.8q-0.2 0-0.5 0zm-2341-15.8q-0.1 0-0.2 0c-1.3-0.1-2.3-1.3-2.2-2.6q0.7-7.2 1.5-14.3c0.1-1.3 1.3-2.3 2.6-2.1 1.4 0.1 2.3 1.3 2.2 2.6q-0.8 7.1-1.5 14.3c-0.1 1.2-1.2 2.1-2.4 2.1zm2331.7-31.1c-1.1 0-2.1-0.8-2.3-1.9q-1.5-7.4-2.9-14.1c-0.3-1.3 0.5-2.6 1.8-2.8 1.3-0.3 2.6 0.5 2.8 1.8q1.5 6.8 3 14.1c0.2 1.3-0.6 2.6-1.9 2.8q-0.2 0.1-0.5 0.1zm-2326.3-16.4q-0.1 0-0.3-0.1c-1.3-0.1-2.2-1.3-2.1-2.6q1-7.2 2-14.3c0.2-1.3 1.4-2.2 2.7-2 1.3 0.2 2.2 1.4 2 2.7q-1 7-1.9 14.2c-0.2 1.2-1.2 2.1-2.4 2.1zm2311-25.3q-0.2 0-0.3 0-6.9-0.8-14.2-1.6c-1.4-0.2-2.3-1.4-2.2-2.7 0.2-1.3 1.3-2.2 2.7-2.1q7.3 0.8 14.3 1.6c1.3 0.2 2.2 1.4 2.1 2.7-0.2 1.2-1.2 2.1-2.4 2.1zm-47.6-5q-0.1 0-0.2 0-7-0.6-14.3-1.3c-1.3-0.1-2.3-1.2-2.2-2.5 0.1-1.4 1.3-2.3 2.6-2.2q7.3 0.6 14.3 1.3c1.3 0.1 2.3 1.3 2.2 2.6-0.1 1.2-1.2 2.1-2.4 2.1zm-47.7-4q-0.1 0-0.2 0-7-0.5-14.3-1c-1.3-0.1-2.3-1.3-2.2-2.6 0.1-1.3 1.3-2.3 2.6-2.2q7.3 0.5 14.3 1.1c1.3 0.1 2.3 1.2 2.2 2.5-0.1 1.3-1.1 2.2-2.4 2.2zm-47.7-3.3q-0.1 0-0.2 0l-14.3-1c-1.3 0-2.3-1.2-2.2-2.5 0.1-1.3 1.1-2.3 2.5-2.2l14.3 0.9c1.4 0.1 2.4 1.2 2.3 2.5-0.1 1.3-1.2 2.3-2.4 2.3zm-47.8-3q0 0-0.1 0l-14.3-0.8c-1.4 0-2.4-1.2-2.3-2.5 0.1-1.3 1.2-2.3 2.5-2.2l14.4 0.8c1.3 0 2.3 1.2 2.2 2.5-0.1 1.3-1.1 2.2-2.4 2.2zm-47.8-2.5q0 0-0.1 0l-14.3-0.7c-1.3-0.1-2.3-1.2-2.3-2.5 0.1-1.3 1.2-2.3 2.5-2.3l14.4 0.7c1.3 0.1 2.3 1.2 2.2 2.5 0 1.3-1.1 2.3-2.4 2.3zm-47.7-2.2q-0.1 0-0.2 0l-14.3-0.7c-1.3 0-2.3-1.1-2.3-2.4 0.1-1.4 1.3-2.4 2.5-2.3l14.4 0.6c1.3 0 2.3 1.2 2.2 2.5 0 1.3-1.1 2.3-2.3 2.3zm-47.8-2q-0.1 0-0.1 0l-14.4-0.6c-1.3 0-2.3-1.1-2.3-2.5 0.1-1.3 1.3-2.4 2.5-2.3l14.3 0.6c1.4 0 2.4 1.2 2.3 2.5 0 1.3-1.1 2.3-2.3 2.3zm-1969.7-0.1q-0.3 0-0.5 0c-1.3-0.2-2.1-1.5-1.9-2.8l0.8-4.5c0.7-4.1 4.1-7 8.3-7.1h1.2c1.5-0.2 2.4 1 2.4 2.4 0.1 1.3-1 2.4-2.3 2.4h-1.3c-1.8 0-3.3 1.3-3.6 3.2l-0.8 4.5c-0.2 1.1-1.2 1.9-2.3 1.9zm1921.8-1.7q0 0 0 0l-14.4-0.5c-1.3-0.1-2.3-1.2-2.3-2.5 0.1-1.3 1.2-2.4 2.5-2.3l14.3 0.5c1.3 0.1 2.4 1.2 2.3 2.5 0 1.3-1.1 2.3-2.4 2.3zm-47.8-1.6q0 0-0.1 0l-14.3-0.5c-1.3 0-2.4-1.1-2.3-2.4 0-1.4 1.1-2.3 2.4-2.4l14.4 0.5c1.3 0 2.4 1.1 2.3 2.5 0 1.3-1.1 2.3-2.4 2.3zm-47.8-1.5q0 0-0.1 0l-14.3-0.4c-1.3 0-2.4-1.1-2.3-2.4 0-1.4 1.1-2.5 2.4-2.4l14.4 0.4c1.3 0.1 2.3 1.2 2.3 2.5-0.1 1.3-1.1 2.3-2.4 2.3zm-47.8-1.3q-0.1 0-0.1 0l-14.3-0.3c-1.4-0.1-2.4-1.2-2.4-2.5 0.1-1.3 0.9-2.3 2.5-2.3l14.3 0.3c1.3 0.1 2.4 1.2 2.4 2.5-0.1 1.3-1.1 2.3-2.4 2.3zm-47.9-1.2q0 0 0 0l-14.4-0.3c-1.3 0-2.3-1.1-2.3-2.4 0-1.4 0.9-2.4 2.4-2.4l14.4 0.4c1.3 0 2.4 1.1 2.3 2.4 0 1.3-1.1 2.3-2.4 2.3zm-47.8-1q0 0-0.1 0l-14.3-0.3c-1.3-0.1-2.4-1.1-2.3-2.5 0-1.3 1.2-2.3 2.4-2.3l14.4 0.3c1.3 0 2.3 1.1 2.3 2.4 0 1.3-1.1 2.4-2.4 2.4zm-47.8-1q-0.1 0-0.1 0l-14.3-0.3c-1.4 0-2.4-1.1-2.4-2.4 0-1.3 1.1-2.5 2.5-2.3l14.3 0.2c1.3 0 2.4 1.1 2.4 2.5-0.1 1.3-1.1 2.3-2.4 2.3zm-1593.4-0.7c-1.4 0-2.4-1.1-2.4-2.4-0.1-1.3 1-2.4 2.3-2.4l14.4-0.2c1.1 0 2.4 1.1 2.4 2.4 0 1.3-1 2.4-2.4 2.4l-14.3 0.2q0 0 0 0zm1545.5-0.2q0 0 0 0l-14.4-0.2c-1.3 0-2.3-1.1-2.3-2.4 0-1.3 1.1-2.4 2.4-2.4q0 0 0 0l14.4 0.3c1.3 0 2.3 1.1 2.3 2.4 0 1.3-1.1 2.3-2.4 2.3zm-1497.7-0.4c-1.3 0-2.3-1-2.4-2.4 0-1.3 1.1-2.4 2.4-2.4l14.4-0.1c1.3-0.2 2.4 1 2.4 2.3 0 1.4-1.1 2.4-2.4 2.5l-14.3 0.1q-0.1 0-0.1 0zm1449.9-0.3q0 0 0 0l-14.4-0.3c-1.3 0-2.4-1.1-2.4-2.4 0.1-1.3 1-2.4 2.5-2.3l14.3 0.2c1.3 0 2.4 1.1 2.4 2.4 0 1.3-1.1 2.4-2.4 2.4zm-1402-0.2c-1.3 0-2.4-1.1-2.4-2.4 0-1.3 1-2.4 2.4-2.4l14.3-0.1c1.5 0 2.4 1 2.4 2.3 0.1 1.3-1 2.4-2.3 2.4l-14.4 0.2q0 0 0 0zm47.9-0.5c-1.4 0-2.4-1.1-2.4-2.4 0-1.3 1-2.4 2.3-2.4l14.4-0.1c1.5 0.1 2.4 1 2.4 2.3 0 1.4-1 2.4-2.4 2.4l-14.3 0.2q0 0 0 0zm1306.2 0q0 0 0 0l-14.3-0.2c-1.4-0.1-2.4-1.1-2.4-2.5 0-1.3 1.1-2.3 2.4-2.3q0 0 0 0l14.4 0.2c1.3 0 2.4 1.1 2.3 2.4 0 1.3-1 2.4-2.4 2.4zm-1258.4-0.5c-1.3 0-2.4-1-2.4-2.3 0-1.4 1.1-2.4 2.4-2.5l14.4-0.1c1.4 0.1 2.4 1.1 2.4 2.4 0 1.3-1.1 2.4-2.4 2.4l-14.4 0.1q0 0 0 0zm1210.6-0.2q0 0 0 0l-14.4-0.1c-1.3-0.1-2.4-1.1-2.3-2.5 0-1.3 1-2.4 2.4-2.3l14.3 0.1c1.4 0.1 2.4 1.1 2.4 2.5 0 1.3-1.1 2.3-2.4 2.3zm-1162.7-0.2c-1.3 0-2.4-1.1-2.4-2.4 0-1.3 1-2.4 2.4-2.4l14.3-0.1q0 0 0 0c1.4 0 2.4 1 2.4 2.3 0 1.4-1 2.5-2.3 2.5l-14.4 0.1q0 0 0 0zm1114.9-0.3q0 0-0.1 0l-14.3-0.2c-1.3 0-2.4-1.1-2.4-2.4 0-1.3 1.2-2.4 2.4-2.4l14.4 0.2c1.3 0 2.4 1.1 2.4 2.4-0.1 1.3-1.1 2.4-2.4 2.4zm-1067.1-0.1c-1.3 0-2.3-1.1-2.4-2.4 0-1.3 1.1-2.4 2.4-2.4l14.4-0.1q0 0 0 0c1.3 0 2.4 1 2.4 2.4 0 1.3-1.1 2.4-2.4 2.4l-14.3 0.1q0 0-0.1 0zm47.9-0.4c-1.3 0-2.4-1.1-2.4-2.4 0-1.3 1.1-2.4 2.4-2.4l14.3-0.1q0 0 0.1 0c1.3 0 2.3 1.1 2.3 2.4 0.1 1.3-1 2.4-2.3 2.4l-14.4 0.1q0 0 0 0zm971.3 0q0 0 0 0l-14.3-0.2c-1.4 0-2.4-1-2.4-2.4 0-1.3 1.1-2.3 2.4-2.3q0 0 0 0l14.3 0.1c1.4 0 2.4 1.1 2.4 2.4 0 1.3-1.1 2.4-2.4 2.4zm-923.4-0.3c-1.4 0-2.4-1.1-2.4-2.4 0-1.3 1-2.4 2.3-2.4l14.4-0.1c1.3-0.1 2.4 1 2.4 2.4 0 1.3-1 2.4-2.4 2.4l-14.3 0.1q0 0 0 0zm875.6-0.2q0 0 0 0l-14.4-0.1c-1.3 0-2.4-1.1-2.4-2.4 0-1.3 1.1-2.4 2.4-2.4q0 0 0 0l14.4 0.2c1.3 0 2.4 1.1 2.4 2.4 0 1.3-1.1 2.3-2.4 2.3zm-827.8-0.2c-1.3 0-2.4-1-2.4-2.3 0-1.4 1.1-2.4 2.4-2.4l14.4-0.1q0 0 0 0c1.3 0 2.4 1 2.4 2.4 0 1.3-1.1 2.3-2.4 2.4h-14.4q0 0 0 0zm779.9-0.1q0 0 0 0l-14.3-0.1c-1.3 0-2.4-1.1-2.4-2.4 0-1.4 1.2-2.6 2.4-2.4l14.4 0.1c1.3 0 2.3 1.1 2.3 2.4 0 1.3-1 2.4-2.4 2.4zm-732-0.1c-1.3 0-2.4-1.1-2.4-2.4 0-1.3 1-2.4 2.4-2.4l14.3-0.1q0 0 0 0c1.3 0 2.4 1.1 2.4 2.4 0 1.3-1 2.4-2.4 2.4l-14.3 0.1q0 0 0 0zm684.2-0.2q0 0 0 0l-14.4-0.1c-1.3 0-2.4-1.1-2.3-2.4 0-1.4 1-2.3 2.4-2.4l14.3 0.1c1.3 0 2.4 1.1 2.4 2.4 0 1.3-1.1 2.4-2.4 2.4zm-636.4-0.1c-1.3 0-2.4-1.1-2.4-2.4 0-1.3 1.1-2.4 2.4-2.4h14.4q0 0 0 0c1.3 0 2.4 1 2.4 2.3 0 1.4-1.1 2.4-2.4 2.4l-14.4 0.1q0 0 0 0zm588.6-0.2q-0.1 0-0.1 0l-14.3-0.1c-1.3 0-2.4-1.1-2.4-2.4 0-1.3 1.1-2.4 2.4-2.4q0 0 0 0l14.4 0.1c1.3 0 2.4 1.1 2.3 2.4 0 1.3-1 2.4-2.3 2.4zm-540.7 0c-1.3 0-2.4-1.1-2.4-2.4 0-1.3 1.1-2.4 2.4-2.4l14.3-0.1q0 0 0 0c1.4 0 2.4 1.1 2.4 2.4 0 1.3-1 2.4-2.3 2.4l-14.4 0.1q0 0 0 0zm47.8-0.2c-1.3 0-2.3-1.1-2.3-2.4-0.1-1.3 1-2.4 2.3-2.4h14.4q0 0 0 0c1.3 0 2.4 1 2.4 2.3 0 1.4-1.1 2.4-2.4 2.4l-14.3 0.1q-0.1 0-0.1 0zm445 0l-14.4-0.1c-1.3 0-2.3-1.1-2.3-2.4 0-1.3 1-2.4 2.4-2.4q0 0 0 0l14.3 0.1c1.3 0 2.4 1.1 2.4 2.4 0 1.3-1.1 2.4-2.4 2.4zm-397.1-0.2c-1.3 0-2.4-1-2.4-2.3 0-1.4 1.1-2.4 2.4-2.4l14.4-0.1c1.3 0 2.3 1.1 2.3 2.4 0.1 1.3-1 2.4-2.3 2.4h-14.4zm349.3 0h-14.4c-1.3 0-2.4-1.1-2.4-2.4 0-1.3 1.1-2.4 2.4-2.4h14.4c1.3 0 2.4 1.1 2.4 2.4 0 1.3-1.1 2.4-2.4 2.4zm-301.4-0.1c-1.4 0-2.4-1.1-2.4-2.4 0-1.3 1-2.4 2.4-2.4h14.3c1.3 0 2.4 1.1 2.4 2.4 0 1.3-1.1 2.4-2.4 2.4h-14.3q0 0 0 0zm253.5 0q0 0 0 0h-14.3c-1.4 0-2.4-1.1-2.4-2.4 0-1.4 1.1-2.4 2.4-2.4h14.3c1.4 0 2.4 1.1 2.4 2.4 0 1.3-1.1 2.4-2.4 2.4zm-205.7-0.1c-1.3 0-2.4-1-2.4-2.4 0-1.3 1.1-2.4 2.4-2.4h14.4c1.3 0 2.4 1.1 2.4 2.4 0 1.3-1.1 2.4-2.4 2.4h-14.4zm157.9 0h-14.4c-1.3 0-2.4-1.1-2.4-2.4 0-1.3 1.1-2.4 2.4-2.4h14.4c1.3 0 2.4 1.1 2.4 2.4 0 1.3-1.1 2.4-2.4 2.4zm-110 0c-1.3 0-2.4-1.1-2.4-2.4 0-1.3 1-2.4 2.4-2.4h14.3c1.3 0 2.4 1.1 2.4 2.4 0 1.3-1.1 2.4-2.4 2.4zm62.2 0q0 0 0 0h-14.4c-1.3 0-2.4-1.1-2.4-2.4 0-1.4 1.1-2.4 2.4-2.4h14.4c1.3 0 2.4 1.1 2.4 2.4 0 1.3-1.1 2.4-2.4 2.4z"/>
				<path id="&lt;Path&gt;" class="s4" d="m1827.5 3161.9h-313.6c-41.1 0-75.7-30.6-80.6-71.2l-36.2-301.8c-5.8-48.1 31.9-90.4 80.6-90.4h376.7c47.7 0 85.1 40.7 80.9 87.9l-26.9 301.8c-3.8 41.7-38.8 73.7-80.9 73.7z"/>
				<path id="&lt;Path&gt;" class="s8" d="m1788.9 3106.4h-238.7c-31.2 0-57.6-23.3-61.3-54.2l-27.6-229.7c-4.4-36.6 24.3-68.8 61.4-68.8h286.7c36.3 0 64.8 30.9 61.5 66.9l-20.4 229.7c-2.9 31.7-29.6 56.1-61.6 56.1z"/>
			</g>
			<g id="&lt;Group&gt;">
				<path id="&lt;Path&gt;" class="s5" d="m2990.8 3675.4c-73.3 3.3-144.3 1.2-191.6-1.2 43.1-30.7 142.5-97.5 225.6-124.1l57.1-3.4c0 0 19.4 29.4 26.3 96.7-9.5 11.8-37.2 28.3-117.4 32z"/>
				<path id="&lt;Path&gt;" class="s4" d="m2798.6 3674.6q0.3-0.2 0.6-0.4c47.3 2.4 118.3 4.5 191.6 1.2 80.2-3.7 107.9-20.2 117.4-32 0.3 3.1 0.6 6.2 0.9 9.5 1.2 14.7-9.8 27.7-24.6 28.8-60 4.6-208.9 14.8-280.7 11.1-9.4-0.5-12.9-12.7-5.2-18.2z"/>
				<path id="&lt;Path&gt;" class="s5" d="m3515.1 3655.7c5.4-34.4 14-84.1 20.6-96.8 10.5-20 46.2 0 46.2 0 0 0 25.1 11.7 36.6 31.1 7.4 12.5 27.7 47.8 41.5 71.8 1.6 2.8 2.2 5.7 2.2 8.6l-143.1 5c-3.5-5.6-5.1-12.5-4-19.7z"/>
				<path id="&lt;Path&gt;" class="s4" d="m3662.2 3670.4c-0.3 8.1-6.8 15.5-15.9 15.8l-101.9 2.8c-10.8 0.3-20.1-5.3-25.3-13.6z"/>
				<path id="&lt;Path&gt;" class="s10" d="m3588.5 3441.6c12.6 25.6 12 91.8 10.7 126.2-0.5 13.2-10.5 24.2-23.6 25.9-7.4 0.9-14.5 1.5-20.5 1.8-11.1 0.5-20.9-7.1-23.1-18-8.1-39.3-26.6-128.9-27.8-133 0 0 66.8-38.2 84.3-2.9z"/>
				<path id="&lt;Path&gt;" class="s11" d="m3093.1 3470.1c-7.9-0.2 3.2 41-8.8 81.4-2.7 9.2-9.5 16.3-19 16.4-6.2 0.1-13.5 0-20.9-0.6-11.2-0.9-20.2-9.5-21.2-20.7l-9.8-105z"/>
				<path id="&lt;Path&gt;" class="s4" d="m3218.9 2303.1c143.1 187.2 353.9 1036.9 383.9 1160.2 2.3 9.4-2.8 18.8-11.8 22.1-25.1 9.3-56.8 12-72 12.8-5.2 0.3-9.8-3.1-11.1-8.1-53.8-206.1-408.9-953.4-408.9-953.4 43 279.6 7.9 873.5 3.6 943.7-0.3 4.2-3.4 7.5-7.5 8.3-29.9 5.5-60.8 2.7-76.6 0.5-6.3-0.9-11-6.2-11.1-12.5-7.6-376.9-132.4-1105.4-136-1122.6z"/>
				<path id="&lt;Path&gt;" class="s12" d="m3095.7 2539.9l-47.5-48.6c-1.8-1.8-1.8-4.8 0-6.6 1.9-1.8 4.8-1.7 6.6 0.1l47.6 48.6c1.8 1.9 1.7 4.8-0.1 6.6-0.9 0.9-2.1 1.3-3.3 1.3-1.2 0-2.4-0.4-3.3-1.4z"/>
				<path id="&lt;Path&gt;" class="s8" d="m2751.3 1414.1c106.3-16 314.7-38.9 450.7 1l-14.7 420.4-492.7-53.1-41.8-59.4c0 0 19.3-297 98.5-308.9z"/>
				<path id="&lt;Path&gt;" class="s13" d="m2996.7 1189.1c0 0 9.9 167.1 8 219.1 0 0-136.9 22.4-169.4-1l25.7-198.2z"/>
				<g id="&lt;Group&gt;">
					<path id="&lt;Path&gt;" class="s14" d="m3032.4 1105.6c6.3 34.5-46.5 111.6-46.5 111.6-33.9 50-89.1 75.1-149.5 57.7-60.4-17.3-45.2-50.6-36.5-103.6 8.7-53 63.8-149.7 63.8-149.7 0 0 162.5 49.4 168.7 84z"/>
					<path id="&lt;Path&gt;" class="s8" d="m2968.9 1176.7l-7.8-0.8c0 0 39.2-62.4 12.2-77-26.9-14.5-136.1-49.3-155.9-91.6-19.2-40.7 6.9-87.8 39.4-98.2 2-0.7 4.2 0.5 5 2.5l2.1 5.1c1.4 3.5 6.3 3.5 7.8 0 1.3-3.3 6-3.5 7.6-0.3 6.1 12.6 24 34.1 76.5 49.7 74.5 22.2 121.4 58.4 117 111.1-0.3 3.3 3.1 5.5 6.1 4.1 6-2.8 15.1-3.5 26 7.9 19 19.8 5.6 64.4-44.2 96.9-2.4 1.6-2.7 5-0.5 6.8 7.7 6.2 18.7 20.4-15.2 34.1-34.7 14-53.9 10-61 7.3-1.9-0.7-3-2.6-2.7-4.6l7.9-46.3c0.4-2.4-1.3-4.6-3.7-4.9z"/>
					<path id="&lt;Path&gt;" class="s15" d="m2966 1186.3c0 0 23.8-63 50.9-41.7 27.1 21.3-22.9 71-46.5 70.9z"/>
				</g>
				<g id="&lt;Group&gt;">
					<path id="&lt;Path&gt;" class="s4" d="m2375.8 1742.9l13.1-51.3c6.4-25.5 31.7-41.3 57.4-36.1l1230.5 251.1c28 5.7 46 33.1 40.1 61.1l-75 355.6z"/>
					<path id="&lt;Path&gt;" class="s16" d="m2259.1 2366.7l92.6-665.2c1.9-13.7 15.1-22.9 28.7-19.9l1263.8 280.6c27 6 43.9 32.9 37.7 59.8l-106.1 459.8z"/>
					<path id="&lt;Path&gt;" class="s17" d="m2292.5 2336.6l35.4-593.7c1-15.3 15.2-26.2 30.2-23l1277.1 270.2c18 3.8 29.9 21.1 27 39.3l-68 428.9z"/>
					<path id="&lt;Path&gt;" class="s8" d="m2200 2476.9l80.4-643.1c4-32 34.2-54 65.9-48.1l1309.6 247.2c26.6 5 44 30.6 39 57.2l-110.6 586c-5.2 27.7-31.1 46.4-59 42.7l-1269.6-169.5c-35.2-4.8-60.1-37-55.7-72.4z"/>
					<path id="&lt;Path&gt;" class="s5" d="m2807.2 1872.7c-5.2 27.3-31.5 45.3-58.8 40.1l-292-55.1c-27.2-5.2-45.2-31.5-40-58.7 5.1-27.3 31.4-45.3 58.7-40.1l292 55.1c27.3 5.1 45.2 31.4 40.1 58.7z"/>
				</g>
				<path id="&lt;Path&gt;" class="s8" d="m3064.6 1598.4l137.4-183.3c0 0 220.9 234.6 263.2 532.4l-137.7 67.2c-42.8-100.3-121.5-236.1-262.9-416.3z"/>
				<path id="&lt;Path&gt;" class="s18" d="m3261.5 2424.1c16.3-27.2 48.1-79.1 63.5-95.3 0 0-14.1-8.9-41.2-5.6-27.1 3.3-48.3-9.9-47.5-24.6l129.3-39.7c5.8-12.2 31.4-81.1-38.1-244.2l137.7-67.2c15.9 111.5 6.8 231.8-48.3 352 0 0-42.8 132.9-92 162.4-128.2 76.9-69.6-27.4-63.4-37.8z"/>
			</g>
		</g>
	</g>
</svg>