<svg width="500" height="330" viewBox="0 0 500 330" fill="none" xmlns="http://www.w3.org/2000/svg">
<path d="M182.774 257.734C250.912 257.734 306.148 202.498 306.148 134.361C306.148 66.2232 250.912 10.9869 182.774 10.9869C114.637 10.9869 59.4009 66.2232 59.4009 134.361C59.4009 202.498 114.637 257.734 182.774 257.734Z" fill="#FFC145"/>
<path d="M132.161 224.342H34.5251C20.8058 224.342 11.6896 238.542 17.4135 251.01L52.8875 328.383H191.942L149.263 235.32C146.191 228.625 139.506 224.342 132.151 224.342H132.161Z" fill="#FF6B6C"/>
<path d="M137.675 205.999C138.056 204.358 138.116 202.626 137.775 200.865C136.484 194.141 129.99 189.728 123.265 191.019C118.712 191.889 115.22 195.151 113.839 199.264C112.008 198.093 109.746 197.583 107.435 198.023C102.661 198.934 99.5294 203.547 100.44 208.32C100.61 209.191 100.9 210.001 101.291 210.752C93.9856 214.214 89.6427 222.28 91.2338 230.595C93.125 240.452 102.641 246.916 112.498 245.035C117.301 244.115 121.294 241.383 123.916 237.68C125.577 237.83 127.288 237.76 129.009 237.43C138.866 235.539 145.33 226.022 143.449 216.166C142.669 212.073 140.567 208.57 137.675 205.999Z" fill="#000B33"/>
<path d="M184.897 214.185C183.496 206.85 176.411 202.046 169.076 203.447C161.741 204.848 156.938 211.933 158.339 219.268C159.739 226.603 166.824 231.416 174.159 230.005C181.494 228.604 186.297 221.52 184.897 214.185Z" fill="#000B33"/>
<path d="M106.963 216.296C104.702 216.296 102.5 215.626 100.589 214.325C98.0674 212.614 96.3763 210.032 95.7959 207.04C95.2255 204.048 95.8459 201.016 97.5571 198.504C99.2683 195.982 101.85 194.281 104.842 193.711C111.006 192.53 116.99 196.593 118.171 202.757C118.741 205.749 118.121 208.781 116.41 211.293C114.699 213.814 112.117 215.516 109.125 216.086C108.404 216.226 107.684 216.296 106.963 216.296ZM106.993 195.052C106.383 195.052 105.763 195.112 105.142 195.232C102.56 195.722 100.319 197.203 98.838 199.375C97.357 201.556 96.8166 204.178 97.3169 206.76C97.8073 209.341 99.2783 211.583 101.46 213.064C103.641 214.545 106.263 215.085 108.845 214.585C111.426 214.095 113.668 212.614 115.149 210.442C116.63 208.261 117.17 205.639 116.67 203.057C115.769 198.344 111.627 195.052 106.993 195.052Z" fill="#000B33"/>
<path d="M282.253 328.562C286.606 320.327 291.389 313.322 291.319 300.633C291.179 274.846 277.98 259.726 267.043 232.727L220.101 241.283C207.402 225.803 194.233 218.768 163.633 219.658L135.353 220.809C79.4856 222.5 73.6216 246.297 45.3825 291.577C36.6365 305.607 32.4337 318.155 31.8933 328.552H282.263L282.253 328.562Z" fill="#000B33"/>
<path d="M113.779 329.333C113.588 329.333 113.398 329.263 113.248 329.123C112.938 328.833 112.938 328.342 113.228 328.042C119.823 321.197 122.705 312.942 122.735 312.862C122.875 312.461 123.315 312.251 123.715 312.381C124.116 312.522 124.326 312.952 124.196 313.352C124.075 313.702 121.174 321.998 114.339 329.103C114.189 329.263 113.989 329.333 113.789 329.333H113.779Z" fill="white"/>
<path d="M163.632 219.669L135.353 220.819C126.537 221.09 118.972 221.91 112.367 223.271C118.361 227.324 137.765 239.142 159.519 238.491C176.371 237.991 186.708 228.705 191.951 222.14C184.416 220.149 175.29 219.338 163.642 219.679L163.632 219.669Z" fill="white"/>
<path d="M397.2 20.3238C397.2 9.09616 388.104 0 376.877 0C365.649 0 356.553 9.09616 356.553 20.3238C356.553 31.5514 365.649 40.6475 376.877 40.6475C388.104 40.6475 397.2 31.5514 397.2 20.3238Z" fill="#FFC145"/>
<path d="M45.1022 186.804C48.8527 176.225 43.3168 164.608 32.7375 160.858C22.1581 157.107 10.5414 162.643 6.7909 173.222C3.04039 183.802 8.57628 195.418 19.1557 199.169C29.735 202.919 41.3517 197.384 45.1022 186.804Z" fill="#A5FFD4"/>
<path d="M282.252 329.333H31.8825C31.6724 329.333 31.4723 329.243 31.3222 329.092C31.1721 328.942 31.102 328.732 31.112 328.522C31.6924 317.445 36.3956 304.526 44.7212 291.177C48.4338 285.223 51.706 279.729 54.8681 274.425C65.005 257.414 73.0104 243.975 84.4482 234.869C96.4363 225.322 112.127 220.749 135.313 220.049L163.592 218.898C195.453 217.967 208.232 225.742 220.4 240.452L266.892 231.977C267.252 231.917 267.602 232.107 267.742 232.447C271.105 240.733 274.617 247.787 278.019 254.612C285.514 269.632 291.979 282.611 292.079 300.633C292.139 311.991 288.436 318.785 284.514 325.99C283.983 326.961 283.453 327.942 282.923 328.932C282.793 329.183 282.532 329.343 282.242 329.343L282.252 329.333ZM32.7031 327.802H281.792C282.252 326.941 282.713 326.09 283.173 325.25C286.995 318.225 290.608 311.601 290.558 300.643C290.458 282.981 284.063 270.153 276.658 255.302C273.316 248.608 269.874 241.693 266.562 233.608L220.24 242.053C219.96 242.103 219.69 242.003 219.51 241.783C207.572 227.233 195.133 219.518 163.662 220.439L135.383 221.59C87.2801 223.051 76.8931 240.482 56.199 275.216C53.0369 280.53 49.7547 286.023 46.0321 291.997C38.0467 304.806 33.4536 317.164 32.7031 327.802Z" fill="#000B33"/>
<path d="M172.209 198.568C180.481 186.383 177.308 169.798 165.122 161.526C152.936 153.254 136.352 156.426 128.08 168.612C119.808 180.798 122.98 197.383 135.166 205.655C147.352 213.927 163.936 210.754 172.209 198.568Z" fill="#000B33"/>
<path d="M463.046 25.6871H250.972V182.483H463.046V25.6871Z" fill="white"/>
<path d="M462.676 183.254H250.602C250.182 183.254 249.831 182.914 249.831 182.484V25.6873C249.831 25.267 250.172 24.9167 250.602 24.9167H462.676C463.096 24.9167 463.446 25.257 463.446 25.6873V182.484C463.446 182.904 463.106 183.254 462.676 183.254ZM251.372 181.723H461.915V26.4578H251.372V181.723Z" fill="#000B33"/>
<path d="M462.676 42.3891H250.602C250.182 42.3891 249.831 42.0488 249.831 41.6185C249.831 41.1883 250.172 40.848 250.602 40.848H462.676C463.096 40.848 463.446 41.1883 463.446 41.6185C463.446 42.0488 463.106 42.3891 462.676 42.3891Z" fill="#000B33"/>
<path d="M262.17 33.1121C262.17 34.6331 260.939 35.854 259.428 35.854C257.917 35.854 256.686 34.6231 256.686 33.1121C256.686 31.6011 257.917 30.3702 259.428 30.3702C260.939 30.3702 262.17 31.6011 262.17 33.1121Z" fill="#000B33"/>
<path d="M279.732 35.8541C281.247 35.8541 282.474 34.6265 282.474 33.1122C282.474 31.5979 281.247 30.3704 279.732 30.3704C278.218 30.3704 276.99 31.5979 276.99 33.1122C276.99 34.6265 278.218 35.8541 279.732 35.8541Z" fill="#FFC145"/>
<path d="M272.327 33.1122C272.327 34.6333 271.096 35.8541 269.585 35.8541C268.074 35.8541 266.843 34.6232 266.843 33.1122C266.843 31.6012 268.074 30.3704 269.585 30.3704C271.096 30.3704 272.327 31.6012 272.327 33.1122Z" fill="#FF6B6C"/>
<path d="M408.242 97.1963C415.852 84.5863 411.798 68.1947 399.188 60.5848C386.578 52.9749 370.186 57.0284 362.577 69.6385C354.967 82.2486 359.02 98.6401 371.63 106.25C384.24 113.86 400.632 109.806 408.242 97.1963Z" fill="#000B33"/>
<path d="M356.844 95.3442C358.065 102.319 353.392 108.973 346.417 110.184C339.442 111.405 332.788 106.732 331.577 99.7572C330.356 92.7824 335.029 86.1279 342.004 84.9171C348.979 83.6963 355.633 88.3695 356.844 95.3442Z" fill="#000B33"/>
<path d="M453.862 109.259C458.666 93.6908 449.94 77.1758 434.372 72.3716C418.804 67.5674 402.289 76.2932 397.485 91.8611C392.681 107.429 401.407 123.944 416.975 128.748C432.543 133.552 449.058 124.827 453.862 109.259Z" fill="#000B33"/>
<path d="M428.042 127.337C413.623 127.337 400.804 116.96 398.242 102.27C395.37 85.8285 406.408 70.1178 422.849 67.2459C430.814 65.8549 438.84 67.6462 445.454 72.2993C452.069 76.9425 456.482 83.8972 457.873 91.8526C460.745 108.294 449.707 124.004 433.266 126.876C431.515 127.187 429.764 127.327 428.042 127.327V127.337ZM428.122 68.3266C426.461 68.3266 424.79 68.4667 423.119 68.7669C407.508 71.4888 397.031 86.4089 399.763 102.009C402.485 117.62 417.405 128.097 433.006 125.365C448.616 122.643 459.093 107.723 456.362 92.1228C455.041 84.5576 450.858 77.9732 444.574 73.5602C439.68 70.1178 433.976 68.3266 428.112 68.3266H428.122Z" fill="#000B33"/>
<path d="M399.303 91.2519L327.684 102.74C302.837 106.722 284.275 127.737 283.384 152.884L282.604 182.484H462.676L461.815 135.922L451.198 116.609C440.991 98.0465 420.227 87.8896 399.303 91.2419V91.2519Z" fill="#000B33"/>
<path d="M393.669 92.1523L330.667 102.259C330.667 102.259 344.166 121.862 362.168 118.68C376.458 116.159 390.137 101.509 393.669 92.1523Z" fill="white"/>
<path d="M462.675 183.254H282.603C282.393 183.254 282.193 183.173 282.053 183.023C281.913 182.873 281.833 182.673 281.833 182.463L282.613 152.863C283.514 127.406 302.417 106.011 327.564 101.978L375.867 94.2332C376.287 94.1632 376.677 94.4534 376.747 94.8736C376.817 95.2939 376.527 95.6842 376.107 95.7543L327.804 103.499C303.387 107.422 285.025 128.196 284.144 152.913L283.384 181.713H461.885L461.044 136.122L450.517 116.969C450.267 116.518 450.007 116.068 449.747 115.618C449.526 115.247 449.657 114.777 450.017 114.567C450.377 114.357 450.857 114.477 451.068 114.837C451.338 115.297 451.598 115.758 451.858 116.228L462.475 135.541C462.535 135.651 462.565 135.771 462.565 135.901L463.426 182.463C463.426 182.673 463.346 182.863 463.206 183.013C463.066 183.163 462.865 183.244 462.655 183.244L462.675 183.254Z" fill="#000B33"/>
<path d="M450.418 116.009C450.158 116.009 449.897 115.879 449.757 115.629C439.36 98.0367 419.607 88.7604 399.423 92.0026L376.107 95.7452C375.697 95.8152 375.297 95.525 375.227 95.1047C375.157 94.6844 375.447 94.2942 375.867 94.2241L399.183 90.4816C409.33 88.8505 419.617 90.3015 428.913 94.6744C438.199 99.0374 445.865 106.012 451.078 114.838C451.298 115.198 451.168 115.679 450.808 115.889C450.688 115.959 450.548 115.999 450.418 115.999V116.009Z" fill="white"/>
<path d="M418.986 182.374C418.646 182.374 418.336 182.144 418.246 181.793L403.566 124.875C403.456 124.465 403.706 124.044 404.116 123.944C404.526 123.834 404.947 124.084 405.047 124.495L419.727 181.413C419.837 181.823 419.587 182.244 419.176 182.344C419.116 182.364 419.046 182.364 418.986 182.364V182.374Z" fill="white"/>
<path d="M313.835 172.347C313.454 172.347 313.074 172.327 312.684 172.296C308.871 171.996 305.399 170.225 302.917 167.313C300.436 164.401 299.235 160.699 299.535 156.886C300.065 150.161 305.099 144.798 311.763 143.847C312.184 143.787 312.574 144.077 312.634 144.498C312.694 144.918 312.404 145.308 311.983 145.368C306.129 146.209 301.536 151.112 301.076 157.016C300.806 160.418 301.877 163.721 304.098 166.322C306.32 168.924 309.412 170.495 312.814 170.765C314.195 170.876 315.576 170.765 316.907 170.435C317.317 170.335 317.737 170.585 317.837 170.996C317.937 171.406 317.687 171.826 317.277 171.926C316.156 172.206 315.006 172.347 313.845 172.347H313.835Z" fill="white"/>
<path d="M319.319 183.254C318.958 183.254 318.638 183.004 318.568 182.633L316.337 171.326C316.257 170.905 316.527 170.505 316.937 170.425C317.347 170.345 317.758 170.615 317.838 171.025L320.069 182.333C320.149 182.753 319.879 183.154 319.469 183.234C319.419 183.234 319.369 183.244 319.319 183.244V183.254Z" fill="white"/>
<path d="M311.884 145.378C311.524 145.378 311.203 145.128 311.133 144.758L309.112 134.511C309.032 134.091 309.302 133.69 309.712 133.61C310.133 133.53 310.533 133.8 310.613 134.211L312.634 144.458C312.714 144.878 312.444 145.278 312.034 145.358C311.984 145.358 311.934 145.368 311.884 145.368V145.378Z" fill="white"/>
<path d="M374.9 67.6749C379.256 53.6052 371.381 38.6688 357.311 34.3135C343.241 29.9582 328.305 37.8333 323.949 51.903C319.594 65.9727 327.469 80.9091 341.539 85.2644C355.609 89.6197 370.545 81.7446 374.9 67.6749Z" fill="#000B33"/>
<path d="M376.877 97.3559L360.926 68.8766L355.192 59.5703C342.144 42.899 325.192 52.5355 324.892 53.6363C324.321 55.7877 323.811 59.3401 324.752 63.8232C328.654 82.3357 329.115 97.556 346.767 94.1137L349.779 104.911L376.877 97.3559Z" fill="white"/>
<path d="M348.828 102.288C348.488 102.288 348.188 102.068 348.088 101.728L346.217 95.0032C341.363 95.8338 337.571 95.2734 334.649 93.3021C328.965 89.4594 327.264 80.6435 325.292 70.4366C324.892 68.3451 324.472 66.1937 324.012 63.9922C323.041 59.3891 323.561 55.7166 324.162 53.455C324.442 52.4043 328.134 50.453 332.297 49.6024C337.471 48.5417 347.397 48.3716 355.803 59.1089C355.823 59.1289 355.833 59.1589 355.853 59.1789L361.587 68.4852L375.737 93.7524C375.947 94.1226 375.817 94.5929 375.446 94.7931C375.076 95.0032 374.606 94.8731 374.406 94.5029L360.266 69.2658L354.572 60.0195C349.709 53.8253 343.825 50.6732 337.08 50.6531C337.05 50.6531 337.03 50.6531 337 50.6531C330.836 50.6531 326.233 53.355 325.623 53.9654C325.072 56.0768 324.632 59.4391 325.523 63.672C325.993 65.8835 326.403 68.0549 326.813 70.1464C328.715 80.0231 330.366 88.5488 335.519 92.0312C338.231 93.8624 341.864 94.3027 346.637 93.3721C347.027 93.292 347.417 93.5322 347.528 93.9225L349.589 101.317C349.699 101.728 349.469 102.148 349.059 102.268C348.989 102.288 348.918 102.298 348.848 102.298L348.828 102.288Z" fill="#000B33"/>
<path d="M347.438 97.3458C347.438 97.3458 349.179 101.178 352.881 100.448C356.584 99.7174 357.034 90.3711 357.034 90.3711L346.767 94.3138L347.438 97.3458Z" fill="#000B33"/>
<path d="M364.319 63.9029C364.969 67.6354 362.468 71.1978 358.735 71.8482C355.003 72.4987 351.44 69.997 350.79 66.2645C350.139 62.5319 352.641 58.9695 356.373 58.3191C360.106 57.6686 363.668 60.1703 364.319 63.9029Z" fill="white"/>
<path d="M356.524 67.2853C356.414 67.2853 356.304 67.2653 356.193 67.2053C355.813 67.0252 355.653 66.5648 355.833 66.1846L357.704 62.2819C357.885 61.9017 358.345 61.7416 358.725 61.9217C359.105 62.1018 359.266 62.5621 359.085 62.9424L357.214 66.845C357.084 67.1252 356.804 67.2853 356.524 67.2853Z" fill="#000B33"/>
<path d="M328.274 70.7477C328.514 71.6183 329.425 72.1286 330.295 71.8885C331.166 71.6483 331.676 70.7377 331.436 69.8671C331.196 68.9965 330.285 68.4862 329.415 68.7263C328.544 68.9665 328.034 69.8771 328.274 70.7477Z" fill="#000B33"/>
<path d="M334.419 78.1627C334.048 78.1627 333.728 77.8925 333.658 77.5222L331.847 66.6449C331.777 66.2246 332.057 65.8343 332.477 65.7643C332.888 65.6942 333.288 65.9744 333.358 66.3947L335.169 77.2721C335.239 77.6924 334.959 78.0826 334.539 78.1527C334.499 78.1527 334.459 78.1627 334.409 78.1627H334.419Z" fill="#000B33"/>
<path d="M346.767 94.894C346.427 94.894 346.127 94.6739 346.026 94.3336C345.916 93.9234 346.147 93.5031 346.557 93.383C352.111 91.832 356.684 90.0207 356.724 90.0007C357.124 89.8406 357.564 90.0407 357.724 90.431C357.884 90.8213 357.694 91.2716 357.294 91.4317C357.244 91.4517 352.611 93.2929 346.967 94.864C346.897 94.884 346.827 94.894 346.757 94.894H346.767Z" fill="#000B33"/>
<path d="M339.392 82.7459C338.482 82.7459 337.591 82.4758 336.821 81.9654C336.651 81.8553 336.531 81.6752 336.491 81.4751C336.45 81.2749 336.49 81.0648 336.601 80.8947L340.924 74.4203C341.164 74.0701 341.634 73.97 341.984 74.2101C343.025 74.9006 343.725 75.9513 343.966 77.1722C344.206 78.393 343.966 79.6338 343.275 80.6745C342.585 81.7152 341.534 82.4157 340.313 82.6559C340.003 82.7159 339.693 82.7459 339.392 82.7459ZM338.362 81.0348C338.892 81.2249 339.453 81.2649 340.013 81.1549C340.833 80.9947 341.534 80.5144 342.004 79.8239C342.465 79.1335 342.635 78.2929 342.475 77.4824C342.364 76.922 342.104 76.4116 341.734 76.0014L338.372 81.0448L338.362 81.0348Z" fill="#000B33"/>
<path d="M343.765 66.3248C343.905 67.2154 343.295 68.0559 342.394 68.196C341.493 68.3361 340.663 67.7257 340.523 66.8251C340.383 65.9345 340.993 65.0939 341.894 64.9538C342.794 64.8137 343.625 65.4242 343.765 66.3248Z" fill="#000B33"/>
<path d="M324.232 65.0838C324.232 65.0838 328.925 63.0924 326.894 54.9269C326.894 54.9269 327.735 63.5427 333.438 61.8416C339.142 60.1404 337.251 48.8027 337.251 48.8027C337.251 48.8027 340.603 64.8036 354.633 58.8696C355.133 58.6594 347.638 40.6472 347.638 40.6472L327.454 48.3524C327.454 48.3524 319.989 57.0984 324.232 65.0838Z" fill="#000B33"/>
<path d="M368.492 72.7188C368.492 72.7188 357.555 70.3071 355.564 55.1569L349.389 56.7479C349.389 56.7479 349.389 78.4126 369.393 79.6435L368.482 72.7188H368.492Z" fill="#000B33"/>
<path d="M284.835 111.976H202.95V193.861H284.835V111.976Z" fill="white"/>
<path d="M268.235 144.237C274.624 144.237 279.803 139.058 279.803 132.67C279.803 126.281 274.624 121.102 268.235 121.102C261.846 121.102 256.667 126.281 256.667 132.67C256.667 139.058 261.846 144.237 268.235 144.237Z" fill="#FFC145"/>
<path d="M284.835 158.207C281.453 156.636 277.541 156.636 273.888 157.436C268.725 158.567 264.181 162.049 258.928 162.64C253.144 163.29 248.731 158.987 245.209 154.985C241.516 150.782 237.984 146.849 232.73 144.618C228.357 142.756 223.484 142.126 218.791 142.896C212.286 143.947 206.582 147.83 202.95 153.173V193.861H284.835V158.217V158.207Z" fill="#FF6B6C"/>
<path d="M284.836 194.622H202.95C202.53 194.622 202.18 194.282 202.18 193.851V111.966C202.18 111.546 202.52 111.195 202.95 111.195H284.836C285.256 111.195 285.606 111.536 285.606 111.966V193.851C285.606 194.272 285.266 194.622 284.836 194.622ZM203.721 193.091H284.065V112.746H203.721V193.091Z" fill="#000B33"/>
<path d="M264.572 95.7352C259.489 95.2949 256.387 98.0668 256.387 98.0668C256.387 98.0668 253.835 94.2442 246.98 93.4237C241.627 92.7732 238.645 97.0661 238.645 97.0661C238.645 97.0661 234.552 93.934 230.739 94.1542C225.476 94.4644 223.284 97.3964 223.284 97.3964C223.284 97.3964 221.013 93.3636 215.799 94.3343C210.536 95.3149 207.353 100.328 204.311 106.282C200.899 112.967 198.618 125.746 205.933 127.557C209.605 128.457 213.698 123.704 215.059 119.922C214.058 125.435 214.418 131.039 219.562 132.14C223.304 132.94 226.086 130.319 228.118 126.586C228.598 130.569 230.169 133.641 233.871 133.681C238.054 133.721 240.886 129.818 242.798 125.095C242.417 128.287 245.81 133.161 250.713 132.67C259.639 131.78 261.62 121.022 263.311 111.836H280.643C280.643 111.836 275.149 96.6859 264.572 95.7652V95.7352Z" fill="white"/>
<path d="M233.941 134.431C233.941 134.431 233.891 134.431 233.871 134.431C231.629 134.411 228.877 133.34 227.726 128.697C225.365 132.15 222.573 133.551 219.401 132.88C216.629 132.29 213.667 130.168 213.857 123.764C211.806 126.636 208.734 129.027 205.751 128.297C203.72 127.797 202.239 126.536 201.328 124.534C199.117 119.701 200.868 111.335 203.63 105.922C206.512 100.268 209.824 94.6642 215.658 93.5734C219.801 92.8029 222.303 94.9544 223.353 96.2052C224.414 95.2346 226.756 93.6235 230.688 93.3833C233.891 93.2032 237.163 95.1245 238.494 96.0251C239.594 94.7843 242.526 92.1124 247.069 92.6628C252.563 93.3233 255.435 95.825 256.516 97.0158C257.727 96.1852 260.599 94.6242 264.641 94.9744C275.579 95.925 281.143 110.915 281.373 111.556C281.463 111.796 281.423 112.056 281.283 112.256C281.143 112.466 280.902 112.586 280.652 112.586H263.961C262.3 121.612 260.088 132.49 250.802 133.42C248.46 133.651 246.209 132.81 244.458 131.029C243.527 130.088 242.827 128.947 242.416 127.797C240.145 132.21 237.303 134.441 233.951 134.441L233.941 134.431ZM228.127 125.805C228.127 125.805 228.227 125.805 228.267 125.815C228.597 125.875 228.847 126.146 228.887 126.476C229.408 130.769 231.039 132.86 233.881 132.89C237.133 132.93 239.905 130.198 242.086 124.785C242.226 124.424 242.616 124.234 242.987 124.324C243.357 124.414 243.607 124.775 243.557 125.155C243.387 126.626 244.178 128.547 245.538 129.928C246.359 130.759 248.11 132.12 250.632 131.869C258.988 131.029 260.879 120.742 262.55 111.656C262.62 111.295 262.93 111.025 263.3 111.025H279.491C278.04 107.663 272.887 97.2159 264.491 96.4854C259.798 96.0751 256.906 98.6069 256.886 98.6269C256.726 98.777 256.506 98.847 256.276 98.817C256.056 98.787 255.855 98.6669 255.735 98.4768C255.715 98.4467 253.254 94.9344 246.869 94.1638C242.056 93.5834 239.364 97.326 239.254 97.4861C239.134 97.6562 238.944 97.7763 238.744 97.8063C238.534 97.8363 238.324 97.7863 238.163 97.6562C238.123 97.6262 234.251 94.6942 230.768 94.9043C225.965 95.1845 223.964 97.7363 223.884 97.8363C223.724 98.0465 223.473 98.1565 223.223 98.1365C222.963 98.1165 222.733 97.9764 222.603 97.7463C222.523 97.6062 220.511 94.2039 215.928 95.0645C211.275 95.935 208.293 100.128 204.981 106.602C202.349 111.766 200.778 119.641 202.709 123.874C203.43 125.445 204.541 126.396 206.112 126.776C209.274 127.556 213.096 123.063 214.337 119.621C214.467 119.241 214.878 119.041 215.258 119.141C215.648 119.241 215.888 119.631 215.818 120.021C214.597 126.726 215.918 130.538 219.731 131.349C222.643 131.969 225.245 130.238 227.456 126.176C227.596 125.925 227.856 125.775 228.127 125.775V125.805Z" fill="#000B33"/>
<path d="M215.059 120.682C215.059 120.682 214.959 120.682 214.919 120.672C214.499 120.592 214.229 120.191 214.309 119.771C216.63 107.503 222.554 97.1157 222.614 97.0157C222.824 96.6454 223.295 96.5253 223.665 96.7355C224.035 96.9456 224.155 97.4159 223.945 97.7862C223.885 97.8863 218.091 108.053 215.82 120.061C215.75 120.432 215.429 120.682 215.069 120.682H215.059Z" fill="#000B33"/>
<path d="M228.128 127.346C228.128 127.346 228.068 127.346 228.038 127.346C227.617 127.296 227.317 126.916 227.367 126.496C229.719 106.242 237.724 96.9558 238.065 96.5756C238.345 96.2554 238.825 96.2253 239.145 96.5055C239.465 96.7857 239.495 97.266 239.215 97.5863C239.135 97.6763 231.18 106.943 228.888 126.676C228.838 127.066 228.508 127.356 228.128 127.356V127.346Z" fill="#000B33"/>
<path d="M242.797 125.845C242.797 125.845 242.727 125.845 242.687 125.845C242.267 125.785 241.976 125.395 242.036 124.975C244.908 104.701 255.516 97.7161 255.966 97.4259C256.326 97.1957 256.796 97.3058 257.027 97.656C257.257 98.0163 257.147 98.4866 256.796 98.7168C256.666 98.7968 246.319 105.681 243.557 125.185C243.507 125.565 243.177 125.845 242.797 125.845Z" fill="#000B33"/>
<path d="M198.155 298.192C197.915 298.192 197.675 298.082 197.525 297.862C197.284 297.511 197.364 297.031 197.715 296.791C203.298 292.888 206.631 286.504 206.631 279.699C206.631 271.224 201.567 263.658 193.742 260.426C193.352 260.266 193.162 259.816 193.322 259.426C193.482 259.035 193.932 258.845 194.322 259.005C202.728 262.478 208.162 270.603 208.162 279.699C208.162 287.004 204.589 293.859 198.595 298.052C198.465 298.142 198.305 298.192 198.155 298.192Z" fill="#000B33"/>
<path d="M194.033 260.496C193.613 260.496 193.262 260.156 193.262 259.726V249.759C193.262 249.339 193.603 248.988 194.033 248.988C194.463 248.988 194.804 249.329 194.804 249.759V259.726C194.804 260.146 194.463 260.496 194.033 260.496Z" fill="#000B33"/>
<path d="M201.658 319.967C201.287 319.967 200.957 319.697 200.897 319.316L197.385 297.542C197.315 297.121 197.605 296.731 198.025 296.661C198.445 296.591 198.836 296.881 198.906 297.301L202.418 319.076C202.488 319.496 202.198 319.887 201.778 319.957C201.738 319.957 201.698 319.957 201.658 319.957V319.967Z" fill="#000B33"/>
<path d="M45.3814 304.296C45.1813 304.296 44.9711 304.216 44.821 304.056C44.5308 303.746 44.5509 303.266 44.8511 302.976C65.7452 283.382 101.64 283.913 102.01 283.923C102.43 283.923 102.77 284.283 102.76 284.703C102.76 285.123 102.4 285.484 101.98 285.454C101.62 285.454 66.3356 284.933 45.9018 304.096C45.7517 304.236 45.5615 304.306 45.3714 304.306L45.3814 304.296Z" fill="white"/>
<path d="M102.901 292.358C102.481 292.358 102.13 292.017 102.13 291.587V249.759C102.13 249.339 102.471 248.988 102.901 248.988C103.331 248.988 103.671 249.329 103.671 249.759V291.587C103.671 292.007 103.331 292.358 102.901 292.358Z" fill="white"/>
<path d="M139.305 222.931L140.396 205.629C151.284 201.026 144.159 188.017 144.159 188.017C158.909 186.896 164.863 167.913 165.733 164.031C167.024 164.811 173.058 167.953 174.409 173.597C178.752 191.78 185.907 209.452 166.234 212.754L165.733 223.781L139.305 222.931Z" fill="white"/>
<path d="M165.734 224.542C165.734 224.542 165.714 224.542 165.704 224.542C165.284 224.522 164.954 224.162 164.974 223.742L165.474 212.714C165.494 212.354 165.754 212.054 166.114 211.994C171.228 211.133 174.65 209.272 176.591 206.3C180.464 200.336 177.912 190.409 175.211 179.892C174.7 177.891 174.17 175.829 173.669 173.778C172.599 169.285 168.266 166.423 166.224 165.202C165.004 169.575 159.33 186.757 145.33 188.658C146.301 190.799 148.182 195.903 146.621 200.386C145.741 202.928 143.889 204.859 141.137 206.14L140.467 216.747C140.437 217.167 140.087 217.497 139.656 217.467C139.236 217.437 138.916 217.077 138.936 216.657L139.636 205.579C139.656 205.289 139.837 205.029 140.107 204.919C142.688 203.828 144.4 202.137 145.18 199.896C146.951 194.812 143.529 188.448 143.489 188.388C143.369 188.158 143.369 187.877 143.489 187.657C143.609 187.427 143.849 187.277 144.109 187.257C157.168 186.266 163.613 170.035 164.994 163.861C165.044 163.621 165.214 163.421 165.444 163.321C165.674 163.221 165.934 163.241 166.144 163.371C166.234 163.421 166.345 163.491 166.475 163.561C168.296 164.622 173.84 167.844 175.171 173.418C175.661 175.459 176.191 177.52 176.702 179.512C179.493 190.359 182.125 200.606 177.882 207.14C175.781 210.373 172.219 212.424 166.985 213.405L166.515 223.812C166.495 224.222 166.154 224.542 165.744 224.542H165.734Z" fill="#000B33"/>
<path d="M139.305 222.7C139.305 222.7 139.275 222.7 139.255 222.7C138.835 222.67 138.515 222.31 138.545 221.88L139.685 204.858C139.715 204.438 140.086 204.118 140.506 204.148C140.926 204.178 141.247 204.538 141.216 204.968L140.076 221.99C140.046 222.4 139.715 222.71 139.315 222.71L139.305 222.7Z" fill="#000B33"/>
<path d="M163.612 213.634C159.229 213.634 156.067 212.763 155.907 212.713C155.497 212.603 155.257 212.173 155.377 211.763C155.487 211.352 155.917 211.112 156.327 211.232C156.367 211.242 160.74 212.443 166.174 211.983C166.594 211.943 166.965 212.263 167.005 212.683C167.045 213.104 166.724 213.474 166.304 213.514C165.373 213.594 164.473 213.624 163.622 213.624L163.612 213.634Z" fill="#000B33"/>
<path d="M165.774 220.669C165.774 220.669 163.763 223.001 160.221 220.949C156.678 218.898 155.287 211.653 155.287 211.653L166.235 212.754L165.774 220.669Z" fill="#000B33"/>
<path d="M171.248 196.833C168.396 196.833 166.735 194.181 166.654 194.071C166.434 193.711 166.544 193.241 166.905 193.011C167.265 192.791 167.735 192.901 167.955 193.261C167.955 193.261 169.376 195.482 171.528 195.282C171.948 195.242 172.328 195.552 172.358 195.973C172.398 196.393 172.088 196.773 171.668 196.803C171.518 196.813 171.378 196.823 171.238 196.823L171.248 196.833Z" fill="#000B33"/>
<path d="M137.044 194.341C138.605 197.794 142.678 199.335 146.13 197.774C149.583 196.213 151.124 192.14 149.563 188.687C148.002 185.235 143.929 183.694 140.477 185.255C137.024 186.816 135.483 190.889 137.044 194.341Z" fill="white"/>
<path d="M144.959 192.881C144.829 192.881 144.699 192.851 144.579 192.78L140.836 190.609C140.466 190.399 140.346 189.929 140.556 189.558C140.766 189.188 141.237 189.068 141.607 189.278L145.349 191.45C145.72 191.66 145.84 192.13 145.63 192.5C145.49 192.75 145.229 192.881 144.969 192.881H144.959Z" fill="#000B33"/>
<path d="M173.25 191.8C172.949 191.8 172.659 191.62 172.539 191.329L167.946 180.202C167.786 179.812 167.976 179.361 168.366 179.201C168.757 179.041 169.207 179.231 169.367 179.622L173.96 190.749C174.12 191.139 173.94 191.59 173.54 191.75C173.44 191.79 173.35 191.81 173.25 191.81V191.8Z" fill="#000B33"/>
<path d="M158.95 185.405C159.28 186.246 160.24 186.656 161.081 186.326C161.922 185.986 162.332 185.035 162.002 184.194C161.671 183.354 160.711 182.944 159.87 183.274C159.03 183.614 158.619 184.565 158.95 185.405Z" fill="#000B33"/>
<path d="M171.527 182.554C171.868 183.395 172.818 183.805 173.659 183.475C174.499 183.134 174.91 182.184 174.58 181.343C174.249 180.503 173.289 180.092 172.448 180.423C171.608 180.763 171.197 181.713 171.527 182.554Z" fill="#000B33"/>
<path d="M123.465 183.595V210.263H132.592V181.944L123.465 183.595Z" fill="#000B33"/>
<path d="M391.467 270.503V300.043C391.467 310.94 394.559 320.847 399.592 328.152H442.081C447.115 320.847 450.207 310.94 450.207 300.043V270.503H391.467Z" fill="#FF6B6C"/>
<path d="M127.498 216.687C128.809 223.541 135.424 228.024 142.278 226.713C149.133 225.402 153.616 218.788 152.305 211.933C150.994 205.079 144.38 200.596 137.525 201.906C130.67 203.217 126.187 209.832 127.498 216.687Z" fill="#000B33"/>
<path d="M167.315 261.937C156.117 259.735 140.777 262.667 134.442 264.578C128.118 266.49 110.816 282.601 110.816 282.601L102 284.692C90.8528 287.334 84.9288 299.542 89.7621 309.929C94.2751 319.626 106.163 323.318 115.379 317.885L123.465 313.111C123.465 313.111 132.201 315.463 134.502 317.304C137.835 319.956 145.1 327.111 150.523 323.048C158.649 316.974 139.306 302.144 139.306 302.144C139.306 302.144 144.969 303.185 147.992 305.016C151.024 306.847 159.209 318.475 167.705 311.941C171.628 308.919 165.383 302.234 165.383 302.234C166.944 304.205 172.018 305.236 174.369 302.794C181.684 295.209 155.256 276.366 155.256 276.366C155.256 276.366 159.079 274.695 162.111 275.856C165.143 277.017 172.138 291.457 180.323 286.453C188.509 281.45 174.119 263.278 167.315 261.937Z" fill="white"/>
<path d="M146.911 325.02C142.558 325.02 138.015 321.217 135.263 318.915C134.813 318.535 134.403 318.195 134.032 317.905C132.311 316.534 126.187 314.652 123.575 313.932L115.77 318.545C111.197 321.247 105.653 321.897 100.58 320.316C95.5064 318.735 91.3035 315.073 89.062 310.25C86.6604 305.086 86.7104 299.192 89.1921 294.069C91.6738 288.945 96.2769 285.253 101.821 283.942L110.446 281.9C112.268 280.209 128.048 265.699 134.233 263.838C139.366 262.287 155.357 258.795 167.475 261.186C172.719 262.217 182.005 272.314 183.376 280.009C183.956 283.241 183.036 285.703 180.734 287.114C179.383 287.934 178.072 288.285 176.811 288.285C172.088 288.285 168.015 283.391 165.104 279.909C163.783 278.328 162.542 276.837 161.851 276.567C160.19 275.926 158.209 276.256 156.918 276.607C161.261 279.849 175.691 291.177 176.411 298.962C176.571 300.683 176.071 302.144 174.94 303.315C173.819 304.476 172.098 305.066 170.077 304.966C169.436 304.936 168.796 304.836 168.186 304.676C169.096 306.167 169.897 307.998 169.767 309.669C169.667 310.84 169.136 311.811 168.186 312.541C160.961 318.095 153.856 311.37 150.033 307.758C149.033 306.817 148.172 305.997 147.612 305.656C146.171 304.786 144.079 304.095 142.348 303.625C146.281 307.037 153.336 313.902 153.306 319.236C153.296 321.027 152.525 322.508 151.004 323.649C149.713 324.619 148.322 325.01 146.921 325.01L146.911 325.02ZM123.465 312.331C123.535 312.331 123.595 312.331 123.665 312.361C124.026 312.461 132.581 314.783 134.983 316.694C135.353 316.994 135.774 317.344 136.244 317.735C139.796 320.707 145.73 325.67 150.073 322.428C151.204 321.587 151.754 320.546 151.764 319.236C151.805 312.751 138.986 302.844 138.856 302.744C138.576 302.524 138.475 302.144 138.626 301.824C138.766 301.504 139.116 301.313 139.466 301.383C139.706 301.424 145.3 302.474 148.412 304.355C149.123 304.786 149.993 305.606 151.094 306.657C155.067 310.42 161.071 316.093 167.255 311.33C167.855 310.87 168.176 310.28 168.236 309.549C168.416 307.358 166.214 304.325 165.084 303.035C164.983 302.925 164.883 302.824 164.793 302.714C164.533 302.394 164.583 301.924 164.893 301.654C165.204 301.383 165.674 301.414 165.954 301.714C165.974 301.734 166.064 301.834 166.204 301.994C167.015 302.784 168.566 303.375 170.147 303.445C171.058 303.485 172.739 303.395 173.829 302.264C174.65 301.414 174.99 300.383 174.87 299.112C174.11 290.836 155.017 277.127 154.817 276.987C154.596 276.827 154.466 276.557 154.496 276.286C154.526 276.016 154.696 275.776 154.957 275.666C155.127 275.596 159.099 273.885 162.392 275.146C163.452 275.556 164.643 276.977 166.274 278.938C169.817 283.191 174.68 289.015 179.924 285.813C181.675 284.742 182.325 282.891 181.855 280.289C180.614 273.375 171.778 263.608 167.165 262.697C156.678 260.636 141.668 263.208 134.663 265.319C128.579 267.15 111.507 283.011 111.337 283.171C111.237 283.261 111.117 283.321 110.987 283.361L102.171 285.453C97.0774 286.664 92.8546 290.046 90.573 294.759C88.2915 299.462 88.2514 304.886 90.4529 309.629C92.5143 314.052 96.3669 317.424 101.03 318.875C105.693 320.326 110.777 319.726 114.98 317.244L123.065 312.471C123.185 312.401 123.315 312.361 123.455 312.361L123.465 312.331Z" fill="#000B33"/>
<path d="M123.135 144.037C122.775 144.037 122.455 143.777 122.385 143.407C120.153 131.379 127.728 118.3 139.266 114.257C139.847 114.057 140.427 113.877 141.007 113.727C142.168 102.109 149.053 90.9913 159.2 85.1873C171.398 78.2126 187.799 79.1833 199.087 87.5589C199.427 87.8091 199.497 88.2894 199.247 88.6297C198.997 88.9699 198.516 89.0399 198.176 88.7898C187.359 80.7743 171.648 79.8337 159.96 86.5182C150.374 92.0019 143.839 102.419 142.578 113.366C146.061 112.706 149.413 112.966 152.285 114.137C156.778 115.968 159.86 120.141 159.96 124.494C160.02 126.896 158.99 129.407 157.228 131.219C155.617 132.86 153.596 133.77 151.515 133.77C145.54 133.77 141.718 127.226 141.027 120.771C140.837 118.97 140.787 117.159 140.887 115.358C140.517 115.468 140.147 115.588 139.787 115.718C128.929 119.521 121.804 131.829 123.906 143.137C123.986 143.557 123.706 143.957 123.295 144.027C123.245 144.027 123.205 144.037 123.155 144.037H123.135ZM142.438 114.958C142.308 116.839 142.348 118.72 142.548 120.601C143.169 126.375 146.441 132.229 151.515 132.229C153.176 132.229 154.817 131.489 156.128 130.138C157.609 128.617 158.469 126.515 158.429 124.524C158.339 120.821 155.577 117.129 151.705 115.548C148.993 114.437 145.781 114.247 142.438 114.947V114.958Z" fill="#000B33"/>
<path d="M155.267 277.127C155.127 277.127 154.987 277.087 154.867 277.017C154.807 276.977 148.933 273.344 146.901 272.334C146.521 272.144 146.371 271.683 146.561 271.303C146.751 270.923 147.211 270.773 147.592 270.963C149.693 272.014 155.437 275.566 155.677 275.716C156.037 275.936 156.148 276.417 155.927 276.777C155.777 277.007 155.527 277.137 155.277 277.137L155.267 277.127Z" fill="#000B33"/>
<path d="M165.393 302.995C165.173 302.995 164.953 302.895 164.803 302.715C155.486 291.418 139.566 284.703 139.405 284.633C139.015 284.473 138.825 284.023 138.995 283.632C139.155 283.242 139.606 283.052 139.996 283.222C140.156 283.292 156.427 290.147 165.983 301.745C166.254 302.075 166.204 302.555 165.883 302.825C165.743 302.945 165.563 303.005 165.393 303.005V302.995Z" fill="#000B33"/>
<path d="M139.305 302.906C139.135 302.906 138.955 302.846 138.815 302.726C135.783 300.194 129.629 298.172 129.569 298.152C129.168 298.022 128.948 297.592 129.078 297.182C129.209 296.782 129.639 296.561 130.049 296.691C130.309 296.782 136.553 298.823 139.806 301.545C140.136 301.815 140.176 302.305 139.906 302.626C139.756 302.806 139.536 302.896 139.315 302.896L139.305 302.906Z" fill="#000B33"/>
<path d="M221.602 329.333C221.452 329.333 221.311 329.293 221.181 329.203C220.771 328.923 211.034 322.108 211.385 296.111C211.715 271.624 219.28 241.404 219.36 241.103C219.46 240.693 219.88 240.443 220.291 240.543C220.701 240.643 220.951 241.063 220.851 241.474C220.771 241.774 213.256 271.824 212.926 296.131C212.586 321.178 221.942 327.862 222.042 327.922C222.392 328.162 222.482 328.633 222.242 328.983C222.092 329.203 221.852 329.323 221.602 329.323V329.333Z" fill="white"/>
<path d="M309.24 185.466C306.308 182.974 303.316 183.114 300.545 184.605C303.657 178.981 304.898 173.638 300.274 171.586C294.04 168.814 289.247 174.058 285.955 180.192C287.286 174.198 286.825 168.994 280.651 168.214C274.457 167.433 271.275 175.529 268.353 182.413C269.263 177.16 268.083 172.066 263.079 171.576C254.443 170.726 248.259 193.601 248.259 193.601H232.959C223.652 193.601 216.408 201.677 217.408 210.923L220.1 241.283C221.251 254.252 232.548 263.929 245.537 263.068C260.718 262.068 271.135 247.368 267.042 232.718L262.949 218.068C262.949 218.068 273.036 218.008 287.416 209.422C302.836 200.206 317.096 192.11 309.24 185.456V185.466Z" fill="white"/>
<path d="M243.937 263.899C238.043 263.899 232.399 261.817 227.876 257.945C222.942 253.722 219.91 247.828 219.33 241.353L216.638 210.993C216.138 206.38 217.639 201.747 220.741 198.284C223.853 194.822 228.296 192.841 232.949 192.841H247.669C248.72 189.178 254.654 169.995 263.15 170.826C265.081 171.016 266.612 171.826 267.693 173.247C268.633 174.488 269.194 176.159 269.354 178.131C271.986 172.237 275.208 166.763 280.742 167.453C283.113 167.754 284.864 168.694 285.965 170.255C287.026 171.766 287.466 173.828 287.286 176.509C292.259 169.305 297.173 169.365 300.585 170.876C302.196 171.596 303.267 172.717 303.767 174.208C304.498 176.389 303.967 179.371 302.196 183.084C304.878 182.293 307.4 182.894 309.741 184.875C311.542 186.396 312.373 188.107 312.223 189.959C311.743 195.813 301.396 201.977 289.417 209.132L287.816 210.092C275.828 217.257 266.862 218.558 263.96 218.798L267.793 232.527C269.804 239.732 268.473 247.368 264.15 253.472C259.827 259.576 253.063 263.358 245.598 263.849C245.047 263.889 244.497 263.899 243.947 263.899H243.937ZM232.959 194.372C228.746 194.372 224.704 196.173 221.892 199.305C219.07 202.447 217.719 206.65 218.169 210.843L220.861 241.223C221.962 253.672 233.019 263.128 245.478 262.318C252.482 261.857 258.827 258.315 262.879 252.581C266.932 246.857 268.183 239.692 266.292 232.938L262.199 218.288C262.139 218.058 262.179 217.807 262.329 217.617C262.469 217.427 262.699 217.317 262.939 217.307C263.04 217.307 273.016 217.127 287.016 208.761L288.617 207.801C299.744 201.156 310.262 194.892 310.682 189.829C310.792 188.488 310.161 187.247 308.74 186.046C306.319 183.995 303.757 183.744 300.905 185.275C300.605 185.436 300.235 185.375 299.995 185.135C299.754 184.895 299.704 184.525 299.864 184.225C302.196 180.022 303.017 176.81 302.306 174.688C301.946 173.608 301.175 172.817 299.955 172.277C295.191 170.155 290.698 172.937 286.625 180.552C286.445 180.892 286.045 181.043 285.685 180.912C285.325 180.782 285.124 180.402 285.205 180.022C286.135 175.829 285.975 172.917 284.714 171.136C283.864 169.925 282.503 169.225 280.551 168.974C275.148 168.284 272.086 175.559 269.374 181.973L269.064 182.714C268.914 183.074 268.513 183.264 268.143 183.154C267.773 183.044 267.533 182.674 267.603 182.283C268.193 178.841 267.793 175.889 266.482 174.168C265.671 173.107 264.501 172.487 263.02 172.347C262.889 172.337 262.759 172.327 262.629 172.327C256.235 172.327 250.651 187.737 249.01 193.801C248.92 194.131 248.62 194.372 248.27 194.372H232.969H232.959Z" fill="#000B33"/>
<path d="M285.775 209.502C285.635 209.502 285.505 209.462 285.375 209.392C285.014 209.172 284.894 208.701 285.125 208.341L299.895 184.215C300.115 183.855 300.585 183.735 300.955 183.965C301.315 184.185 301.436 184.655 301.205 185.015L286.435 209.142C286.295 209.382 286.035 209.512 285.785 209.512L285.775 209.502Z" fill="#000B33"/>
<path d="M274.447 208.632C274.327 208.632 274.207 208.602 274.087 208.542C273.717 208.342 273.566 207.882 273.767 207.501C276.849 201.687 285.144 180.133 285.224 179.913C285.374 179.512 285.825 179.322 286.215 179.472C286.615 179.622 286.805 180.073 286.655 180.463C286.315 181.354 278.24 202.318 275.117 208.212C274.977 208.472 274.717 208.622 274.437 208.622L274.447 208.632Z" fill="#000B33"/>
<path d="M259.987 209.501C259.927 209.501 259.877 209.501 259.817 209.481C259.407 209.391 259.147 208.981 259.237 208.561C260.278 203.868 267.322 183.053 267.623 182.163C267.763 181.763 268.193 181.542 268.593 181.683C268.993 181.823 269.214 182.253 269.073 182.653C269.003 182.873 261.759 204.278 260.728 208.891C260.648 209.251 260.328 209.491 259.977 209.491L259.987 209.501Z" fill="#000B33"/>
<path d="M141.938 312.162H147.792C149.022 312.162 150.023 313.162 150.023 314.393V317.295H139.706V314.393C139.706 313.162 140.707 312.162 141.938 312.162Z" fill="#FFC145"/>
<path d="M150.023 318.065H139.706C139.285 318.065 138.935 317.725 138.935 317.295V313.302C138.935 312.241 139.796 311.381 140.856 311.381H148.872C149.933 311.381 150.793 312.241 150.793 313.302V317.295C150.793 317.715 150.453 318.065 150.023 318.065ZM140.466 316.534H149.252V313.312C149.252 313.102 149.082 312.932 148.872 312.932H140.856C140.646 312.932 140.476 313.102 140.476 313.312V316.534H140.466Z" fill="#000B33"/>
<path d="M158.268 312.162H164.122C165.353 312.162 166.353 313.162 166.353 314.393V317.295H156.036V314.393C156.036 313.162 157.037 312.162 158.268 312.162Z" fill="#FFC145"/>
<path d="M166.364 318.065H156.047C155.627 318.065 155.276 317.725 155.276 317.294V313.302C155.276 312.241 156.137 311.38 157.198 311.38H165.213C166.274 311.38 167.134 312.241 167.134 313.302V317.294C167.134 317.715 166.794 318.065 166.364 318.065ZM156.807 316.534H165.593V313.312C165.593 313.102 165.423 312.932 165.213 312.932H157.198C156.988 312.932 156.817 313.102 156.817 313.312V316.534H156.807Z" fill="#000B33"/>
<path d="M174.61 312.162H180.464C181.694 312.162 182.695 313.162 182.695 314.393V317.295H172.378V314.393C172.378 313.162 173.379 312.162 174.61 312.162Z" fill="#FFC145"/>
<path d="M182.695 318.065H172.378C171.958 318.065 171.607 317.725 171.607 317.294V313.302C171.607 312.241 172.468 311.38 173.529 311.38H181.544C182.605 311.38 183.465 312.241 183.465 313.302V317.294C183.465 317.715 183.125 318.065 182.695 318.065ZM173.138 316.534H181.924V313.312C181.924 313.102 181.754 312.932 181.544 312.932H173.529C173.319 312.932 173.148 313.102 173.148 313.312V316.534H173.138Z" fill="#000B33"/>
<path d="M191.111 312.162H196.965C198.196 312.162 199.197 313.162 199.197 314.393V317.295H188.88V314.393C188.88 313.162 189.881 312.162 191.111 312.162Z" fill="#FFC145"/>
<path d="M199.196 318.065H188.879C188.459 318.065 188.108 317.725 188.108 317.294V313.302C188.108 312.241 188.969 311.38 190.03 311.38H198.045C199.106 311.38 199.966 312.241 199.966 313.302V317.294C199.966 317.715 199.626 318.065 199.196 318.065ZM189.639 316.534H198.425V313.312C198.425 313.102 198.255 312.932 198.045 312.932H190.03C189.82 312.932 189.649 313.102 189.649 313.312V316.534H189.639Z" fill="#000B33"/>
<path d="M207.442 312.162H213.296C214.527 312.162 215.527 313.162 215.527 314.393V317.295H205.21V314.393C205.21 313.162 206.211 312.162 207.442 312.162Z" fill="#FFC145"/>
<path d="M215.528 318.065H205.211C204.79 318.065 204.44 317.725 204.44 317.294V313.302C204.44 312.241 205.301 311.38 206.362 311.38H214.377C215.438 311.38 216.298 312.241 216.298 313.302V317.294C216.298 317.715 215.958 318.065 215.528 318.065ZM205.971 316.534H214.757V313.312C214.757 313.102 214.587 312.932 214.377 312.932H206.362C206.151 312.932 205.981 313.102 205.981 313.312V316.534H205.971Z" fill="#000B33"/>
<path d="M223.833 312.162H229.687C230.918 312.162 231.919 313.162 231.919 314.393V317.295H221.602V314.393C221.602 313.162 222.602 312.162 223.833 312.162Z" fill="#FFC145"/>
<path d="M231.918 318.065H221.601C221.181 318.065 220.831 317.725 220.831 317.294V313.302C220.831 312.241 221.691 311.38 222.752 311.38H230.767C231.828 311.38 232.689 312.241 232.689 313.302V317.294C232.689 317.715 232.348 318.065 231.918 318.065ZM222.362 316.534H231.148V313.312C231.148 313.102 230.977 312.932 230.767 312.932H222.752C222.542 312.932 222.372 313.102 222.372 313.312V316.534H222.362Z" fill="#000B33"/>
<path d="M240.173 312.162H246.027C247.258 312.162 248.259 313.162 248.259 314.393V317.295H237.942V314.393C237.942 313.162 238.943 312.162 240.173 312.162Z" fill="#A5FFD4"/>
<path d="M248.259 318.065H237.942C237.522 318.065 237.172 317.725 237.172 317.294V313.302C237.172 312.241 238.032 311.38 239.093 311.38H247.109C248.169 311.38 249.03 312.241 249.03 313.302V317.294C249.03 317.715 248.69 318.065 248.259 318.065ZM238.703 316.534H247.489V313.312C247.489 313.102 247.319 312.932 247.109 312.932H239.093C238.883 312.932 238.713 313.102 238.713 313.312V316.534H238.703Z" fill="#000B33"/>
<path d="M255.054 317.296H132.871C129.76 317.296 127.238 319.818 127.238 322.929C127.238 326.041 129.76 328.563 132.871 328.563H255.054C258.166 328.563 260.688 326.041 260.688 322.929C260.688 319.818 258.166 317.296 255.054 317.296Z" fill="white"/>
<path d="M255.053 329.334H132.871C129.338 329.334 126.466 326.462 126.466 322.929C126.466 319.397 129.338 316.525 132.871 316.525H255.053C258.586 316.525 261.458 319.397 261.458 322.929C261.458 326.462 258.586 329.334 255.053 329.334ZM132.871 318.066C130.189 318.066 128.007 320.248 128.007 322.929C128.007 325.611 130.189 327.793 132.871 327.793H255.053C257.735 327.793 259.917 325.611 259.917 322.929C259.917 320.248 257.735 318.066 255.053 318.066H132.871Z" fill="#000B33"/>
<path d="M347.137 205.498H258.517C243.032 205.498 230.478 218.052 230.478 233.537V272.594C230.478 288.079 243.032 300.633 258.517 300.633H347.137C362.623 300.633 375.176 288.079 375.176 272.594V233.537C375.176 218.052 362.623 205.498 347.137 205.498Z" fill="white"/>
<path d="M360.736 301.404H244.927C236.542 301.404 229.717 294.579 229.717 286.193V219.949C229.717 211.563 236.542 204.738 244.927 204.738H360.736C369.122 204.738 375.946 211.563 375.946 219.949V286.193C375.946 294.579 369.122 301.404 360.736 301.404ZM244.927 206.269C237.382 206.269 231.248 212.403 231.248 219.949V286.193C231.248 293.739 237.382 299.873 244.927 299.873H360.736C368.281 299.873 374.415 293.739 374.415 286.193V219.949C374.415 212.403 368.281 206.269 360.736 206.269H244.927Z" fill="#000B33"/>
<path d="M356.553 317.295H341.653L323.521 251.54C321.529 244.305 314.945 239.292 307.43 239.292C296.402 239.292 288.417 249.789 291.339 260.416L307.02 317.295H261.909C258.797 317.295 256.275 319.816 256.275 322.928C256.275 326.041 258.797 328.562 261.909 328.562H356.543C359.655 328.562 362.177 326.041 362.177 322.928C362.177 319.816 359.655 317.295 356.543 317.295H356.553Z" fill="white"/>
<path d="M356.553 329.332H261.919C258.387 329.332 255.515 326.46 255.515 322.928C255.515 319.395 258.387 316.523 261.919 316.523H306.019L290.598 260.616C289.137 255.322 290.208 249.768 293.54 245.395C296.873 241.022 301.936 238.521 307.43 238.521C315.255 238.521 322.18 243.794 324.261 251.339L342.233 316.534H356.553C360.086 316.534 362.957 319.405 362.957 322.938C362.957 326.47 360.086 329.342 356.553 329.342V329.332ZM261.919 318.065C259.237 318.065 257.056 320.246 257.056 322.928C257.056 325.61 259.237 327.791 261.919 327.791H356.553C359.235 327.791 361.416 325.61 361.416 322.928C361.416 320.246 359.235 318.065 356.553 318.065H341.653C341.303 318.065 341.003 317.834 340.913 317.504L322.78 251.75C320.879 244.865 314.575 240.062 307.43 240.062C302.416 240.062 297.803 242.353 294.761 246.336C291.729 250.319 290.749 255.382 292.079 260.215L307.76 317.094C307.82 317.324 307.78 317.574 307.63 317.764C307.48 317.954 307.26 318.065 307.02 318.065H261.909H261.919Z" fill="#000B33"/>
<path d="M341.653 318.065H307.03C306.61 318.065 306.259 317.725 306.259 317.295C306.259 316.864 306.6 316.524 307.03 316.524H341.653C342.074 316.524 342.424 316.864 342.424 317.295C342.424 317.725 342.084 318.065 341.653 318.065Z" fill="#000B33"/>
<path d="M500 329.333H22.6865C22.2663 329.333 21.916 328.993 21.916 328.563C21.916 328.132 22.2562 327.792 22.6865 327.792H500" fill="#000B33"/>
<path d="M426.15 245.747C426.15 245.747 418.925 205.99 460.763 200.546C460.763 200.546 467.318 240.723 426.15 245.747Z" fill="white"/>
<path d="M426.15 246.517C425.779 246.517 425.459 246.257 425.399 245.886C425.269 245.176 422.337 228.244 432.144 214.815C438.208 206.51 447.804 201.456 460.673 199.785C461.083 199.735 461.464 200.015 461.534 200.426C461.654 201.156 464.345 218.538 454.239 232.007C448.154 240.112 438.748 244.986 426.26 246.517C426.23 246.517 426.2 246.517 426.17 246.517H426.15ZM460.103 201.406C448.054 203.117 439.058 207.931 433.374 215.716C425.059 227.094 426.36 241.523 426.8 244.886C438.488 243.315 447.294 238.671 452.988 231.086C461.564 219.679 460.493 204.859 460.103 201.406Z" fill="#000B33"/>
<path d="M421.157 231.717C421.157 231.717 429.372 198.624 389.976 186.957C389.976 186.957 382.44 232.157 421.157 231.717Z" fill="#A5FFD4"/>
<path d="M417.224 257.635C417.224 257.635 417.814 232.157 386.423 233.048C386.423 233.048 387.604 259.116 417.224 257.635Z" fill="white"/>
<path d="M414.822 258.465C406.346 258.465 399.481 256.133 394.408 251.51C386.242 244.085 385.672 233.528 385.652 233.088C385.652 232.877 385.712 232.677 385.852 232.527C385.992 232.377 386.182 232.287 386.392 232.287C397 231.987 405.195 234.619 410.729 240.122C418.144 247.497 418.004 257.244 417.994 257.664C417.994 258.064 417.664 258.395 417.263 258.415C416.443 258.455 415.622 258.475 414.832 258.475L414.822 258.465ZM387.253 233.798C387.553 236.34 388.994 244.525 395.449 250.389C400.552 255.012 407.607 257.204 416.423 256.904C416.303 254.562 415.452 246.987 409.618 241.193C404.545 236.15 397.03 233.668 387.243 233.808L387.253 233.798Z" fill="#000B33"/>
<path d="M421.163 271.183C420.752 271.183 420.409 270.847 420.409 270.422V232.342L390.02 188.32C389.785 187.974 389.864 187.5 390.206 187.263C390.549 187.025 391.019 187.104 391.254 187.45L421.77 231.67C421.858 231.798 421.907 231.947 421.907 232.105V270.422C421.907 270.837 421.574 271.183 421.153 271.183H421.163Z" fill="#000B33"/>
<path d="M426.151 271.274C425.731 271.274 425.38 270.934 425.38 270.503V245.737C425.38 245.566 425.44 245.406 425.54 245.266L460.154 200.066C460.414 199.725 460.894 199.665 461.235 199.925C461.575 200.186 461.635 200.666 461.375 201.006L426.921 246.007V270.513C426.921 270.934 426.581 271.284 426.151 271.284V271.274Z" fill="#000B33"/>
<path d="M417.223 271.274C416.803 271.274 416.453 270.934 416.453 270.503V258.005L385.942 233.648C385.612 233.388 385.552 232.898 385.822 232.568C386.082 232.237 386.573 232.177 386.903 232.447L417.704 257.034C417.884 257.184 417.994 257.404 417.994 257.635V270.503C417.994 270.924 417.654 271.274 417.223 271.274Z" fill="#000B33"/>
<path d="M450.206 271.274H391.466C391.046 271.274 390.695 270.934 390.695 270.504C390.695 270.073 391.036 269.733 391.466 269.733H450.206C450.626 269.733 450.976 270.073 450.976 270.504C450.976 270.934 450.636 271.274 450.206 271.274Z" fill="#000B33"/>
<path d="M108.385 99.4572C108.185 99.4572 107.994 99.3771 107.844 99.237L97.1971 88.5898C96.8969 88.2896 96.8969 87.7993 97.1971 87.4991C97.4973 87.1989 97.9876 87.1989 98.2878 87.4991L108.935 98.1463C109.235 98.4465 109.235 98.9368 108.935 99.237C108.785 99.3871 108.585 99.4572 108.395 99.4572H108.385Z" fill="#A5FFD4"/>
<path d="M97.7374 99.4572C97.5373 99.4572 97.3472 99.3771 97.1971 99.237C96.8969 98.9368 96.8969 98.4465 97.1971 98.1463L107.844 87.4991C108.144 87.1989 108.635 87.1989 108.935 87.4991C109.235 87.7993 109.235 88.2896 108.935 88.5898L98.2878 99.237C98.1377 99.3871 97.9376 99.4572 97.7474 99.4572H97.7374Z" fill="#A5FFD4"/>
<path d="M217.308 67.2855C211.614 67.2855 206.981 62.6523 206.981 56.9585C206.981 51.2646 211.614 46.6315 217.308 46.6315C223.002 46.6315 227.635 51.2646 227.635 56.9585C227.635 62.6523 223.002 67.2855 217.308 67.2855ZM217.308 48.1725C212.465 48.1725 208.522 52.1152 208.522 56.9585C208.522 61.8018 212.465 65.7444 217.308 65.7444C222.151 65.7444 226.094 61.8018 226.094 56.9585C226.094 52.1152 222.151 48.1725 217.308 48.1725Z" fill="#000B33"/>
</svg>
